%TF.GenerationSoftware,KiCad,Pcbnew,(5.1.6-0-10_14)*%
%TF.CreationDate,2020-09-05T22:35:39+02:00*%
%TF.ProjectId,m5matrix,6d356d61-7472-4697-982e-6b696361645f,rev?*%
%TF.SameCoordinates,Original*%
%TF.FileFunction,Legend,Top*%
%TF.FilePolarity,Positive*%
%FSLAX46Y46*%
G04 Gerber Fmt 4.6, Leading zero omitted, Abs format (unit mm)*
G04 Created by KiCad (PCBNEW (5.1.6-0-10_14)) date 2020-09-05 22:35:39*
%MOMM*%
%LPD*%
G01*
G04 APERTURE LIST*
%ADD10C,0.300000*%
%ADD11C,0.120000*%
%ADD12C,0.100000*%
G04 APERTURE END LIST*
D10*
X112635428Y-151519142D02*
X112635428Y-153662000D01*
X112492571Y-154090571D01*
X112206857Y-154376285D01*
X111778285Y-154519142D01*
X111492571Y-154519142D01*
X114064000Y-154519142D02*
X114064000Y-152519142D01*
X114064000Y-151519142D02*
X113921142Y-151662000D01*
X114064000Y-151804857D01*
X114206857Y-151662000D01*
X114064000Y-151519142D01*
X114064000Y-151804857D01*
X115921142Y-154519142D02*
X115635428Y-154376285D01*
X115492571Y-154090571D01*
X115492571Y-151519142D01*
X117492571Y-154519142D02*
X117206857Y-154376285D01*
X117064000Y-154090571D01*
X117064000Y-151519142D01*
X119778285Y-154376285D02*
X119492571Y-154519142D01*
X118921142Y-154519142D01*
X118635428Y-154376285D01*
X118492571Y-154090571D01*
X118492571Y-152947714D01*
X118635428Y-152662000D01*
X118921142Y-152519142D01*
X119492571Y-152519142D01*
X119778285Y-152662000D01*
X119921142Y-152947714D01*
X119921142Y-153233428D01*
X118492571Y-153519142D01*
X121064000Y-154376285D02*
X121349714Y-154519142D01*
X121921142Y-154519142D01*
X122206857Y-154376285D01*
X122349714Y-154090571D01*
X122349714Y-153947714D01*
X122206857Y-153662000D01*
X121921142Y-153519142D01*
X121492571Y-153519142D01*
X121206857Y-153376285D01*
X121064000Y-153090571D01*
X121064000Y-152947714D01*
X121206857Y-152662000D01*
X121492571Y-152519142D01*
X121921142Y-152519142D01*
X122206857Y-152662000D01*
X123778285Y-151519142D02*
X123778285Y-151662000D01*
X123635428Y-151947714D01*
X123492571Y-152090571D01*
X127349714Y-154519142D02*
X127349714Y-151519142D01*
X128349714Y-153662000D01*
X129349714Y-151519142D01*
X129349714Y-154519142D01*
X132206857Y-151519142D02*
X130778285Y-151519142D01*
X130635428Y-152947714D01*
X130778285Y-152804857D01*
X131064000Y-152662000D01*
X131778285Y-152662000D01*
X132064000Y-152804857D01*
X132206857Y-152947714D01*
X132349714Y-153233428D01*
X132349714Y-153947714D01*
X132206857Y-154233428D01*
X132064000Y-154376285D01*
X131778285Y-154519142D01*
X131064000Y-154519142D01*
X130778285Y-154376285D01*
X130635428Y-154233428D01*
X135921142Y-154519142D02*
X135921142Y-151519142D01*
X136921142Y-153662000D01*
X137921142Y-151519142D01*
X137921142Y-154519142D01*
X140635428Y-154519142D02*
X140635428Y-152947714D01*
X140492571Y-152662000D01*
X140206857Y-152519142D01*
X139635428Y-152519142D01*
X139349714Y-152662000D01*
X140635428Y-154376285D02*
X140349714Y-154519142D01*
X139635428Y-154519142D01*
X139349714Y-154376285D01*
X139206857Y-154090571D01*
X139206857Y-153804857D01*
X139349714Y-153519142D01*
X139635428Y-153376285D01*
X140349714Y-153376285D01*
X140635428Y-153233428D01*
X141635428Y-152519142D02*
X142778285Y-152519142D01*
X142064000Y-151519142D02*
X142064000Y-154090571D01*
X142206857Y-154376285D01*
X142492571Y-154519142D01*
X142778285Y-154519142D01*
X143778285Y-154519142D02*
X143778285Y-152519142D01*
X143778285Y-153090571D02*
X143921142Y-152804857D01*
X144064000Y-152662000D01*
X144349714Y-152519142D01*
X144635428Y-152519142D01*
X145635428Y-154519142D02*
X145635428Y-152519142D01*
X145635428Y-151519142D02*
X145492571Y-151662000D01*
X145635428Y-151804857D01*
X145778285Y-151662000D01*
X145635428Y-151519142D01*
X145635428Y-151804857D01*
X146778285Y-154519142D02*
X148349714Y-152519142D01*
X146778285Y-152519142D02*
X148349714Y-154519142D01*
X149349714Y-150804857D02*
X149635428Y-150662000D01*
X150064000Y-150662000D01*
X150349714Y-150804857D01*
X150492571Y-151090571D01*
X150492571Y-151376285D01*
X150349714Y-151662000D01*
X149349714Y-152662000D01*
X150492571Y-152662000D01*
X80201428Y-144101428D02*
X80272857Y-144030000D01*
X80415714Y-143958571D01*
X80772857Y-143958571D01*
X80915714Y-144030000D01*
X80987142Y-144101428D01*
X81058571Y-144244285D01*
X81058571Y-144387142D01*
X80987142Y-144601428D01*
X80130000Y-145458571D01*
X81058571Y-145458571D01*
X81558571Y-145458571D02*
X82344285Y-144458571D01*
X81558571Y-144458571D02*
X82344285Y-145458571D01*
X84772857Y-143958571D02*
X84058571Y-143958571D01*
X83987142Y-144672857D01*
X84058571Y-144601428D01*
X84201428Y-144530000D01*
X84558571Y-144530000D01*
X84701428Y-144601428D01*
X84772857Y-144672857D01*
X84844285Y-144815714D01*
X84844285Y-145172857D01*
X84772857Y-145315714D01*
X84701428Y-145387142D01*
X84558571Y-145458571D01*
X84201428Y-145458571D01*
X84058571Y-145387142D01*
X83987142Y-145315714D01*
X85487142Y-145315714D02*
X85558571Y-145387142D01*
X85487142Y-145458571D01*
X85415714Y-145387142D01*
X85487142Y-145315714D01*
X85487142Y-145458571D01*
X86987142Y-145458571D02*
X86130000Y-145458571D01*
X86558571Y-145458571D02*
X86558571Y-143958571D01*
X86415714Y-144172857D01*
X86272857Y-144315714D01*
X86130000Y-144387142D01*
X87630000Y-145458571D02*
X87630000Y-143958571D01*
X87772857Y-144887142D02*
X88201428Y-145458571D01*
X88201428Y-144458571D02*
X87630000Y-145030000D01*
X90272857Y-143958571D02*
X90415714Y-143958571D01*
X90558571Y-144030000D01*
X90630000Y-144101428D01*
X90701428Y-144244285D01*
X90772857Y-144530000D01*
X90772857Y-144887142D01*
X90701428Y-145172857D01*
X90630000Y-145315714D01*
X90558571Y-145387142D01*
X90415714Y-145458571D01*
X90272857Y-145458571D01*
X90130000Y-145387142D01*
X90058571Y-145315714D01*
X89987142Y-145172857D01*
X89915714Y-144887142D01*
X89915714Y-144530000D01*
X89987142Y-144244285D01*
X90058571Y-144101428D01*
X90130000Y-144030000D01*
X90272857Y-143958571D01*
X91630000Y-144601428D02*
X91487142Y-144530000D01*
X91415714Y-144458571D01*
X91344285Y-144315714D01*
X91344285Y-144244285D01*
X91415714Y-144101428D01*
X91487142Y-144030000D01*
X91630000Y-143958571D01*
X91915714Y-143958571D01*
X92058571Y-144030000D01*
X92130000Y-144101428D01*
X92201428Y-144244285D01*
X92201428Y-144315714D01*
X92130000Y-144458571D01*
X92058571Y-144530000D01*
X91915714Y-144601428D01*
X91630000Y-144601428D01*
X91487142Y-144672857D01*
X91415714Y-144744285D01*
X91344285Y-144887142D01*
X91344285Y-145172857D01*
X91415714Y-145315714D01*
X91487142Y-145387142D01*
X91630000Y-145458571D01*
X91915714Y-145458571D01*
X92058571Y-145387142D01*
X92130000Y-145315714D01*
X92201428Y-145172857D01*
X92201428Y-144887142D01*
X92130000Y-144744285D01*
X92058571Y-144672857D01*
X91915714Y-144601428D01*
X93130000Y-143958571D02*
X93272857Y-143958571D01*
X93415714Y-144030000D01*
X93487142Y-144101428D01*
X93558571Y-144244285D01*
X93630000Y-144530000D01*
X93630000Y-144887142D01*
X93558571Y-145172857D01*
X93487142Y-145315714D01*
X93415714Y-145387142D01*
X93272857Y-145458571D01*
X93130000Y-145458571D01*
X92987142Y-145387142D01*
X92915714Y-145315714D01*
X92844285Y-145172857D01*
X92772857Y-144887142D01*
X92772857Y-144530000D01*
X92844285Y-144244285D01*
X92915714Y-144101428D01*
X92987142Y-144030000D01*
X93130000Y-143958571D01*
X94987142Y-143958571D02*
X94272857Y-143958571D01*
X94201428Y-144672857D01*
X94272857Y-144601428D01*
X94415714Y-144530000D01*
X94772857Y-144530000D01*
X94915714Y-144601428D01*
X94987142Y-144672857D01*
X95058571Y-144815714D01*
X95058571Y-145172857D01*
X94987142Y-145315714D01*
X94915714Y-145387142D01*
X94772857Y-145458571D01*
X94415714Y-145458571D01*
X94272857Y-145387142D01*
X94201428Y-145315714D01*
D11*
%TO.C,J2*%
X169384000Y-155334000D02*
X169104000Y-155334000D01*
X169104000Y-155334000D02*
X169104000Y-153734000D01*
X169104000Y-153734000D02*
X168184000Y-153734000D01*
X168184000Y-153734000D02*
X168184000Y-161554000D01*
X168184000Y-161554000D02*
X178304000Y-161554000D01*
X178304000Y-161554000D02*
X178304000Y-153734000D01*
X178304000Y-153734000D02*
X177384000Y-153734000D01*
X177384000Y-153734000D02*
X177384000Y-155334000D01*
X177384000Y-155334000D02*
X177104000Y-155334000D01*
X170744000Y-161554000D02*
X170744000Y-157194000D01*
X170744000Y-157194000D02*
X175744000Y-157194000D01*
X175744000Y-157194000D02*
X175744000Y-161554000D01*
X168184000Y-155334000D02*
X169104000Y-155334000D01*
X178304000Y-155334000D02*
X177384000Y-155334000D01*
X168944000Y-157694000D02*
X168944000Y-159294000D01*
X168944000Y-159294000D02*
X169944000Y-159294000D01*
X169944000Y-159294000D02*
X169944000Y-157694000D01*
X169944000Y-157694000D02*
X168944000Y-157694000D01*
X177544000Y-157694000D02*
X177544000Y-159294000D01*
X177544000Y-159294000D02*
X176544000Y-159294000D01*
X176544000Y-159294000D02*
X176544000Y-157694000D01*
X176544000Y-157694000D02*
X177544000Y-157694000D01*
X169944000Y-159294000D02*
X169944000Y-161554000D01*
X169444000Y-159294000D02*
X169444000Y-161554000D01*
X169384000Y-155334000D02*
X169384000Y-154119000D01*
D12*
%TO.C,U16*%
X182372000Y-122072400D02*
X182489142Y-122075303D01*
X182489142Y-122075303D02*
X182605489Y-122083959D01*
X182605489Y-122083959D02*
X182720847Y-122098289D01*
X182720847Y-122098289D02*
X182835023Y-122118211D01*
X182835023Y-122118211D02*
X182947823Y-122143646D01*
X182947823Y-122143646D02*
X183059054Y-122174513D01*
X183059054Y-122174513D02*
X183168521Y-122210732D01*
X183168521Y-122210732D02*
X183276032Y-122252223D01*
X183276032Y-122252223D02*
X183381392Y-122298906D01*
X183381392Y-122298906D02*
X183484408Y-122350700D01*
X183484408Y-122350700D02*
X183584886Y-122407526D01*
X183584886Y-122407526D02*
X183682633Y-122469302D01*
X183682633Y-122469302D02*
X183777455Y-122535950D01*
X183777455Y-122535950D02*
X183869158Y-122607388D01*
X183869158Y-122607388D02*
X183957549Y-122683537D01*
X183957549Y-122683537D02*
X184042434Y-122764317D01*
X184734351Y-124434751D02*
X184734351Y-144171526D01*
X162635225Y-122072400D02*
X182372000Y-122072400D01*
X184734351Y-144171526D02*
X184731447Y-144288668D01*
X184731447Y-144288668D02*
X184722791Y-144405015D01*
X184722791Y-144405015D02*
X184708461Y-144520373D01*
X184708461Y-144520373D02*
X184688539Y-144634549D01*
X184688539Y-144634549D02*
X184663104Y-144747349D01*
X184663104Y-144747349D02*
X184632237Y-144858580D01*
X184632237Y-144858580D02*
X184596018Y-144968047D01*
X184596018Y-144968047D02*
X184554527Y-145075558D01*
X184554527Y-145075558D02*
X184507844Y-145180918D01*
X184507844Y-145180918D02*
X184456050Y-145283934D01*
X184456050Y-145283934D02*
X184399224Y-145384412D01*
X184399224Y-145384412D02*
X184337448Y-145482159D01*
X184337448Y-145482159D02*
X184270800Y-145576981D01*
X184270800Y-145576981D02*
X184199362Y-145668684D01*
X184199362Y-145668684D02*
X184123213Y-145757075D01*
X184123213Y-145757075D02*
X184042434Y-145841960D01*
X184042434Y-145841960D02*
X183957549Y-145922739D01*
X183957549Y-145922739D02*
X183869158Y-145998888D01*
X183869158Y-145998888D02*
X183777455Y-146070326D01*
X183777455Y-146070326D02*
X183682633Y-146136974D01*
X183682633Y-146136974D02*
X183584886Y-146198750D01*
X183584886Y-146198750D02*
X183484408Y-146255576D01*
X183484408Y-146255576D02*
X183381392Y-146307370D01*
X183381392Y-146307370D02*
X183276032Y-146354053D01*
X183276032Y-146354053D02*
X183168521Y-146395544D01*
X183168521Y-146395544D02*
X183059054Y-146431763D01*
X183059054Y-146431763D02*
X182947823Y-146462630D01*
X182947823Y-146462630D02*
X182835023Y-146488065D01*
X182835023Y-146488065D02*
X182720847Y-146507987D01*
X182720847Y-146507987D02*
X182605489Y-146522317D01*
X182605489Y-146522317D02*
X182489142Y-146530973D01*
X182489142Y-146530973D02*
X182372000Y-146533877D01*
X162635225Y-146533877D02*
X162518082Y-146530973D01*
X162518082Y-146530973D02*
X162401735Y-146522317D01*
X162401735Y-146522317D02*
X162286377Y-146507987D01*
X162286377Y-146507987D02*
X162172201Y-146488065D01*
X162172201Y-146488065D02*
X162059401Y-146462630D01*
X162059401Y-146462630D02*
X161948170Y-146431763D01*
X161948170Y-146431763D02*
X161838703Y-146395544D01*
X161838703Y-146395544D02*
X161731192Y-146354053D01*
X161731192Y-146354053D02*
X161625832Y-146307370D01*
X161625832Y-146307370D02*
X161522816Y-146255576D01*
X161522816Y-146255576D02*
X161422338Y-146198750D01*
X161422338Y-146198750D02*
X161324591Y-146136974D01*
X161324591Y-146136974D02*
X161229769Y-146070326D01*
X161229769Y-146070326D02*
X161138066Y-145998888D01*
X161138066Y-145998888D02*
X161049675Y-145922739D01*
X161049675Y-145922739D02*
X160964791Y-145841960D01*
X160964791Y-145841960D02*
X160884011Y-145757075D01*
X160884011Y-145757075D02*
X160807862Y-145668684D01*
X160807862Y-145668684D02*
X160736424Y-145576981D01*
X160736424Y-145576981D02*
X160669776Y-145482159D01*
X160669776Y-145482159D02*
X160608000Y-145384412D01*
X160608000Y-145384412D02*
X160551174Y-145283934D01*
X160551174Y-145283934D02*
X160499380Y-145180918D01*
X160499380Y-145180918D02*
X160452697Y-145075558D01*
X160452697Y-145075558D02*
X160411206Y-144968047D01*
X160411206Y-144968047D02*
X160374987Y-144858580D01*
X160374987Y-144858580D02*
X160344120Y-144747349D01*
X160344120Y-144747349D02*
X160318685Y-144634549D01*
X160318685Y-144634549D02*
X160298763Y-144520373D01*
X160298763Y-144520373D02*
X160284433Y-144405015D01*
X160284433Y-144405015D02*
X160275777Y-144288668D01*
X160275777Y-144288668D02*
X160272874Y-144171526D01*
X182372000Y-146533877D02*
X162635225Y-146533877D01*
X160272874Y-124434751D02*
X160275777Y-124317608D01*
X160275777Y-124317608D02*
X160284433Y-124201261D01*
X160284433Y-124201261D02*
X160298763Y-124085903D01*
X160298763Y-124085903D02*
X160318685Y-123971727D01*
X160318685Y-123971727D02*
X160344120Y-123858927D01*
X160344120Y-123858927D02*
X160374987Y-123747696D01*
X160374987Y-123747696D02*
X160411206Y-123638229D01*
X160411206Y-123638229D02*
X160452697Y-123530718D01*
X160452697Y-123530718D02*
X160499380Y-123425358D01*
X160499380Y-123425358D02*
X160551174Y-123322342D01*
X160551174Y-123322342D02*
X160608000Y-123221864D01*
X160608000Y-123221864D02*
X160669776Y-123124117D01*
X160669776Y-123124117D02*
X160736424Y-123029295D01*
X160736424Y-123029295D02*
X160807862Y-122937592D01*
X160807862Y-122937592D02*
X160884011Y-122849201D01*
X160884011Y-122849201D02*
X160964791Y-122764317D01*
X160964791Y-122764317D02*
X161049675Y-122683537D01*
X161049675Y-122683537D02*
X161138066Y-122607388D01*
X161138066Y-122607388D02*
X161229769Y-122535950D01*
X161229769Y-122535950D02*
X161324591Y-122469302D01*
X161324591Y-122469302D02*
X161422338Y-122407526D01*
X161422338Y-122407526D02*
X161522816Y-122350700D01*
X161522816Y-122350700D02*
X161625832Y-122298906D01*
X161625832Y-122298906D02*
X161731192Y-122252223D01*
X161731192Y-122252223D02*
X161838703Y-122210732D01*
X161838703Y-122210732D02*
X161948170Y-122174513D01*
X161948170Y-122174513D02*
X162059401Y-122143646D01*
X162059401Y-122143646D02*
X162172201Y-122118211D01*
X162172201Y-122118211D02*
X162286377Y-122098289D01*
X162286377Y-122098289D02*
X162401735Y-122083959D01*
X162401735Y-122083959D02*
X162518082Y-122075303D01*
X162518082Y-122075303D02*
X162635225Y-122072400D01*
X160272874Y-144171526D02*
X160272874Y-124434751D01*
X162635225Y-122072400D02*
X162635225Y-122072400D01*
X184042434Y-122764317D02*
X184123213Y-122849201D01*
X184123213Y-122849201D02*
X184199362Y-122937592D01*
X184199362Y-122937592D02*
X184270800Y-123029295D01*
X184270800Y-123029295D02*
X184337448Y-123124117D01*
X184337448Y-123124117D02*
X184399224Y-123221864D01*
X184399224Y-123221864D02*
X184456050Y-123322342D01*
X184456050Y-123322342D02*
X184507844Y-123425358D01*
X184507844Y-123425358D02*
X184554527Y-123530718D01*
X184554527Y-123530718D02*
X184596018Y-123638229D01*
X184596018Y-123638229D02*
X184632237Y-123747696D01*
X184632237Y-123747696D02*
X184663104Y-123858927D01*
X184663104Y-123858927D02*
X184688539Y-123971727D01*
X184688539Y-123971727D02*
X184708461Y-124085903D01*
X184708461Y-124085903D02*
X184722791Y-124201261D01*
X184722791Y-124201261D02*
X184731447Y-124317608D01*
X184731447Y-124317608D02*
X184734351Y-124434751D01*
%TO.C,U15*%
X126322666Y-122072400D02*
X126439808Y-122075303D01*
X126439808Y-122075303D02*
X126556155Y-122083959D01*
X126556155Y-122083959D02*
X126671513Y-122098289D01*
X126671513Y-122098289D02*
X126785689Y-122118211D01*
X126785689Y-122118211D02*
X126898489Y-122143646D01*
X126898489Y-122143646D02*
X127009720Y-122174513D01*
X127009720Y-122174513D02*
X127119187Y-122210732D01*
X127119187Y-122210732D02*
X127226698Y-122252223D01*
X127226698Y-122252223D02*
X127332058Y-122298906D01*
X127332058Y-122298906D02*
X127435074Y-122350700D01*
X127435074Y-122350700D02*
X127535552Y-122407526D01*
X127535552Y-122407526D02*
X127633299Y-122469302D01*
X127633299Y-122469302D02*
X127728121Y-122535950D01*
X127728121Y-122535950D02*
X127819824Y-122607388D01*
X127819824Y-122607388D02*
X127908215Y-122683537D01*
X127908215Y-122683537D02*
X127993100Y-122764317D01*
X128685017Y-124434751D02*
X128685017Y-144171526D01*
X106585891Y-122072400D02*
X126322666Y-122072400D01*
X128685017Y-144171526D02*
X128682113Y-144288668D01*
X128682113Y-144288668D02*
X128673457Y-144405015D01*
X128673457Y-144405015D02*
X128659127Y-144520373D01*
X128659127Y-144520373D02*
X128639205Y-144634549D01*
X128639205Y-144634549D02*
X128613770Y-144747349D01*
X128613770Y-144747349D02*
X128582903Y-144858580D01*
X128582903Y-144858580D02*
X128546684Y-144968047D01*
X128546684Y-144968047D02*
X128505193Y-145075558D01*
X128505193Y-145075558D02*
X128458510Y-145180918D01*
X128458510Y-145180918D02*
X128406716Y-145283934D01*
X128406716Y-145283934D02*
X128349890Y-145384412D01*
X128349890Y-145384412D02*
X128288114Y-145482159D01*
X128288114Y-145482159D02*
X128221466Y-145576981D01*
X128221466Y-145576981D02*
X128150028Y-145668684D01*
X128150028Y-145668684D02*
X128073879Y-145757075D01*
X128073879Y-145757075D02*
X127993100Y-145841960D01*
X127993100Y-145841960D02*
X127908215Y-145922739D01*
X127908215Y-145922739D02*
X127819824Y-145998888D01*
X127819824Y-145998888D02*
X127728121Y-146070326D01*
X127728121Y-146070326D02*
X127633299Y-146136974D01*
X127633299Y-146136974D02*
X127535552Y-146198750D01*
X127535552Y-146198750D02*
X127435074Y-146255576D01*
X127435074Y-146255576D02*
X127332058Y-146307370D01*
X127332058Y-146307370D02*
X127226698Y-146354053D01*
X127226698Y-146354053D02*
X127119187Y-146395544D01*
X127119187Y-146395544D02*
X127009720Y-146431763D01*
X127009720Y-146431763D02*
X126898489Y-146462630D01*
X126898489Y-146462630D02*
X126785689Y-146488065D01*
X126785689Y-146488065D02*
X126671513Y-146507987D01*
X126671513Y-146507987D02*
X126556155Y-146522317D01*
X126556155Y-146522317D02*
X126439808Y-146530973D01*
X126439808Y-146530973D02*
X126322666Y-146533877D01*
X106585891Y-146533877D02*
X106468748Y-146530973D01*
X106468748Y-146530973D02*
X106352401Y-146522317D01*
X106352401Y-146522317D02*
X106237043Y-146507987D01*
X106237043Y-146507987D02*
X106122867Y-146488065D01*
X106122867Y-146488065D02*
X106010067Y-146462630D01*
X106010067Y-146462630D02*
X105898836Y-146431763D01*
X105898836Y-146431763D02*
X105789369Y-146395544D01*
X105789369Y-146395544D02*
X105681858Y-146354053D01*
X105681858Y-146354053D02*
X105576498Y-146307370D01*
X105576498Y-146307370D02*
X105473482Y-146255576D01*
X105473482Y-146255576D02*
X105373004Y-146198750D01*
X105373004Y-146198750D02*
X105275257Y-146136974D01*
X105275257Y-146136974D02*
X105180435Y-146070326D01*
X105180435Y-146070326D02*
X105088732Y-145998888D01*
X105088732Y-145998888D02*
X105000341Y-145922739D01*
X105000341Y-145922739D02*
X104915457Y-145841960D01*
X104915457Y-145841960D02*
X104834677Y-145757075D01*
X104834677Y-145757075D02*
X104758528Y-145668684D01*
X104758528Y-145668684D02*
X104687090Y-145576981D01*
X104687090Y-145576981D02*
X104620442Y-145482159D01*
X104620442Y-145482159D02*
X104558666Y-145384412D01*
X104558666Y-145384412D02*
X104501840Y-145283934D01*
X104501840Y-145283934D02*
X104450046Y-145180918D01*
X104450046Y-145180918D02*
X104403363Y-145075558D01*
X104403363Y-145075558D02*
X104361872Y-144968047D01*
X104361872Y-144968047D02*
X104325653Y-144858580D01*
X104325653Y-144858580D02*
X104294786Y-144747349D01*
X104294786Y-144747349D02*
X104269351Y-144634549D01*
X104269351Y-144634549D02*
X104249429Y-144520373D01*
X104249429Y-144520373D02*
X104235099Y-144405015D01*
X104235099Y-144405015D02*
X104226443Y-144288668D01*
X104226443Y-144288668D02*
X104223540Y-144171526D01*
X126322666Y-146533877D02*
X106585891Y-146533877D01*
X104223540Y-124434751D02*
X104226443Y-124317608D01*
X104226443Y-124317608D02*
X104235099Y-124201261D01*
X104235099Y-124201261D02*
X104249429Y-124085903D01*
X104249429Y-124085903D02*
X104269351Y-123971727D01*
X104269351Y-123971727D02*
X104294786Y-123858927D01*
X104294786Y-123858927D02*
X104325653Y-123747696D01*
X104325653Y-123747696D02*
X104361872Y-123638229D01*
X104361872Y-123638229D02*
X104403363Y-123530718D01*
X104403363Y-123530718D02*
X104450046Y-123425358D01*
X104450046Y-123425358D02*
X104501840Y-123322342D01*
X104501840Y-123322342D02*
X104558666Y-123221864D01*
X104558666Y-123221864D02*
X104620442Y-123124117D01*
X104620442Y-123124117D02*
X104687090Y-123029295D01*
X104687090Y-123029295D02*
X104758528Y-122937592D01*
X104758528Y-122937592D02*
X104834677Y-122849201D01*
X104834677Y-122849201D02*
X104915457Y-122764317D01*
X104915457Y-122764317D02*
X105000341Y-122683537D01*
X105000341Y-122683537D02*
X105088732Y-122607388D01*
X105088732Y-122607388D02*
X105180435Y-122535950D01*
X105180435Y-122535950D02*
X105275257Y-122469302D01*
X105275257Y-122469302D02*
X105373004Y-122407526D01*
X105373004Y-122407526D02*
X105473482Y-122350700D01*
X105473482Y-122350700D02*
X105576498Y-122298906D01*
X105576498Y-122298906D02*
X105681858Y-122252223D01*
X105681858Y-122252223D02*
X105789369Y-122210732D01*
X105789369Y-122210732D02*
X105898836Y-122174513D01*
X105898836Y-122174513D02*
X106010067Y-122143646D01*
X106010067Y-122143646D02*
X106122867Y-122118211D01*
X106122867Y-122118211D02*
X106237043Y-122098289D01*
X106237043Y-122098289D02*
X106352401Y-122083959D01*
X106352401Y-122083959D02*
X106468748Y-122075303D01*
X106468748Y-122075303D02*
X106585891Y-122072400D01*
X104223540Y-144171526D02*
X104223540Y-124434751D01*
X106585891Y-122072400D02*
X106585891Y-122072400D01*
X127993100Y-122764317D02*
X128073879Y-122849201D01*
X128073879Y-122849201D02*
X128150028Y-122937592D01*
X128150028Y-122937592D02*
X128221466Y-123029295D01*
X128221466Y-123029295D02*
X128288114Y-123124117D01*
X128288114Y-123124117D02*
X128349890Y-123221864D01*
X128349890Y-123221864D02*
X128406716Y-123322342D01*
X128406716Y-123322342D02*
X128458510Y-123425358D01*
X128458510Y-123425358D02*
X128505193Y-123530718D01*
X128505193Y-123530718D02*
X128546684Y-123638229D01*
X128546684Y-123638229D02*
X128582903Y-123747696D01*
X128582903Y-123747696D02*
X128613770Y-123858927D01*
X128613770Y-123858927D02*
X128639205Y-123971727D01*
X128639205Y-123971727D02*
X128659127Y-124085903D01*
X128659127Y-124085903D02*
X128673457Y-124201261D01*
X128673457Y-124201261D02*
X128682113Y-124317608D01*
X128682113Y-124317608D02*
X128685017Y-124434751D01*
%TO.C,U14*%
X154347332Y-122072400D02*
X154464474Y-122075303D01*
X154464474Y-122075303D02*
X154580821Y-122083959D01*
X154580821Y-122083959D02*
X154696179Y-122098289D01*
X154696179Y-122098289D02*
X154810355Y-122118211D01*
X154810355Y-122118211D02*
X154923155Y-122143646D01*
X154923155Y-122143646D02*
X155034386Y-122174513D01*
X155034386Y-122174513D02*
X155143853Y-122210732D01*
X155143853Y-122210732D02*
X155251364Y-122252223D01*
X155251364Y-122252223D02*
X155356724Y-122298906D01*
X155356724Y-122298906D02*
X155459740Y-122350700D01*
X155459740Y-122350700D02*
X155560218Y-122407526D01*
X155560218Y-122407526D02*
X155657965Y-122469302D01*
X155657965Y-122469302D02*
X155752787Y-122535950D01*
X155752787Y-122535950D02*
X155844490Y-122607388D01*
X155844490Y-122607388D02*
X155932881Y-122683537D01*
X155932881Y-122683537D02*
X156017766Y-122764317D01*
X156709683Y-124434751D02*
X156709683Y-144171526D01*
X134610557Y-122072400D02*
X154347332Y-122072400D01*
X156709683Y-144171526D02*
X156706779Y-144288668D01*
X156706779Y-144288668D02*
X156698123Y-144405015D01*
X156698123Y-144405015D02*
X156683793Y-144520373D01*
X156683793Y-144520373D02*
X156663871Y-144634549D01*
X156663871Y-144634549D02*
X156638436Y-144747349D01*
X156638436Y-144747349D02*
X156607569Y-144858580D01*
X156607569Y-144858580D02*
X156571350Y-144968047D01*
X156571350Y-144968047D02*
X156529859Y-145075558D01*
X156529859Y-145075558D02*
X156483176Y-145180918D01*
X156483176Y-145180918D02*
X156431382Y-145283934D01*
X156431382Y-145283934D02*
X156374556Y-145384412D01*
X156374556Y-145384412D02*
X156312780Y-145482159D01*
X156312780Y-145482159D02*
X156246132Y-145576981D01*
X156246132Y-145576981D02*
X156174694Y-145668684D01*
X156174694Y-145668684D02*
X156098545Y-145757075D01*
X156098545Y-145757075D02*
X156017766Y-145841960D01*
X156017766Y-145841960D02*
X155932881Y-145922739D01*
X155932881Y-145922739D02*
X155844490Y-145998888D01*
X155844490Y-145998888D02*
X155752787Y-146070326D01*
X155752787Y-146070326D02*
X155657965Y-146136974D01*
X155657965Y-146136974D02*
X155560218Y-146198750D01*
X155560218Y-146198750D02*
X155459740Y-146255576D01*
X155459740Y-146255576D02*
X155356724Y-146307370D01*
X155356724Y-146307370D02*
X155251364Y-146354053D01*
X155251364Y-146354053D02*
X155143853Y-146395544D01*
X155143853Y-146395544D02*
X155034386Y-146431763D01*
X155034386Y-146431763D02*
X154923155Y-146462630D01*
X154923155Y-146462630D02*
X154810355Y-146488065D01*
X154810355Y-146488065D02*
X154696179Y-146507987D01*
X154696179Y-146507987D02*
X154580821Y-146522317D01*
X154580821Y-146522317D02*
X154464474Y-146530973D01*
X154464474Y-146530973D02*
X154347332Y-146533877D01*
X134610557Y-146533877D02*
X134493414Y-146530973D01*
X134493414Y-146530973D02*
X134377067Y-146522317D01*
X134377067Y-146522317D02*
X134261709Y-146507987D01*
X134261709Y-146507987D02*
X134147533Y-146488065D01*
X134147533Y-146488065D02*
X134034733Y-146462630D01*
X134034733Y-146462630D02*
X133923502Y-146431763D01*
X133923502Y-146431763D02*
X133814035Y-146395544D01*
X133814035Y-146395544D02*
X133706524Y-146354053D01*
X133706524Y-146354053D02*
X133601164Y-146307370D01*
X133601164Y-146307370D02*
X133498148Y-146255576D01*
X133498148Y-146255576D02*
X133397670Y-146198750D01*
X133397670Y-146198750D02*
X133299923Y-146136974D01*
X133299923Y-146136974D02*
X133205101Y-146070326D01*
X133205101Y-146070326D02*
X133113398Y-145998888D01*
X133113398Y-145998888D02*
X133025007Y-145922739D01*
X133025007Y-145922739D02*
X132940123Y-145841960D01*
X132940123Y-145841960D02*
X132859343Y-145757075D01*
X132859343Y-145757075D02*
X132783194Y-145668684D01*
X132783194Y-145668684D02*
X132711756Y-145576981D01*
X132711756Y-145576981D02*
X132645108Y-145482159D01*
X132645108Y-145482159D02*
X132583332Y-145384412D01*
X132583332Y-145384412D02*
X132526506Y-145283934D01*
X132526506Y-145283934D02*
X132474712Y-145180918D01*
X132474712Y-145180918D02*
X132428029Y-145075558D01*
X132428029Y-145075558D02*
X132386538Y-144968047D01*
X132386538Y-144968047D02*
X132350319Y-144858580D01*
X132350319Y-144858580D02*
X132319452Y-144747349D01*
X132319452Y-144747349D02*
X132294017Y-144634549D01*
X132294017Y-144634549D02*
X132274095Y-144520373D01*
X132274095Y-144520373D02*
X132259765Y-144405015D01*
X132259765Y-144405015D02*
X132251109Y-144288668D01*
X132251109Y-144288668D02*
X132248206Y-144171526D01*
X154347332Y-146533877D02*
X134610557Y-146533877D01*
X132248206Y-124434751D02*
X132251109Y-124317608D01*
X132251109Y-124317608D02*
X132259765Y-124201261D01*
X132259765Y-124201261D02*
X132274095Y-124085903D01*
X132274095Y-124085903D02*
X132294017Y-123971727D01*
X132294017Y-123971727D02*
X132319452Y-123858927D01*
X132319452Y-123858927D02*
X132350319Y-123747696D01*
X132350319Y-123747696D02*
X132386538Y-123638229D01*
X132386538Y-123638229D02*
X132428029Y-123530718D01*
X132428029Y-123530718D02*
X132474712Y-123425358D01*
X132474712Y-123425358D02*
X132526506Y-123322342D01*
X132526506Y-123322342D02*
X132583332Y-123221864D01*
X132583332Y-123221864D02*
X132645108Y-123124117D01*
X132645108Y-123124117D02*
X132711756Y-123029295D01*
X132711756Y-123029295D02*
X132783194Y-122937592D01*
X132783194Y-122937592D02*
X132859343Y-122849201D01*
X132859343Y-122849201D02*
X132940123Y-122764317D01*
X132940123Y-122764317D02*
X133025007Y-122683537D01*
X133025007Y-122683537D02*
X133113398Y-122607388D01*
X133113398Y-122607388D02*
X133205101Y-122535950D01*
X133205101Y-122535950D02*
X133299923Y-122469302D01*
X133299923Y-122469302D02*
X133397670Y-122407526D01*
X133397670Y-122407526D02*
X133498148Y-122350700D01*
X133498148Y-122350700D02*
X133601164Y-122298906D01*
X133601164Y-122298906D02*
X133706524Y-122252223D01*
X133706524Y-122252223D02*
X133814035Y-122210732D01*
X133814035Y-122210732D02*
X133923502Y-122174513D01*
X133923502Y-122174513D02*
X134034733Y-122143646D01*
X134034733Y-122143646D02*
X134147533Y-122118211D01*
X134147533Y-122118211D02*
X134261709Y-122098289D01*
X134261709Y-122098289D02*
X134377067Y-122083959D01*
X134377067Y-122083959D02*
X134493414Y-122075303D01*
X134493414Y-122075303D02*
X134610557Y-122072400D01*
X132248206Y-144171526D02*
X132248206Y-124434751D01*
X134610557Y-122072400D02*
X134610557Y-122072400D01*
X156017766Y-122764317D02*
X156098545Y-122849201D01*
X156098545Y-122849201D02*
X156174694Y-122937592D01*
X156174694Y-122937592D02*
X156246132Y-123029295D01*
X156246132Y-123029295D02*
X156312780Y-123124117D01*
X156312780Y-123124117D02*
X156374556Y-123221864D01*
X156374556Y-123221864D02*
X156431382Y-123322342D01*
X156431382Y-123322342D02*
X156483176Y-123425358D01*
X156483176Y-123425358D02*
X156529859Y-123530718D01*
X156529859Y-123530718D02*
X156571350Y-123638229D01*
X156571350Y-123638229D02*
X156607569Y-123747696D01*
X156607569Y-123747696D02*
X156638436Y-123858927D01*
X156638436Y-123858927D02*
X156663871Y-123971727D01*
X156663871Y-123971727D02*
X156683793Y-124085903D01*
X156683793Y-124085903D02*
X156698123Y-124201261D01*
X156698123Y-124201261D02*
X156706779Y-124317608D01*
X156706779Y-124317608D02*
X156709683Y-124434751D01*
%TO.C,U13*%
X182372000Y-94081600D02*
X182489142Y-94084503D01*
X182489142Y-94084503D02*
X182605489Y-94093159D01*
X182605489Y-94093159D02*
X182720847Y-94107489D01*
X182720847Y-94107489D02*
X182835023Y-94127411D01*
X182835023Y-94127411D02*
X182947823Y-94152846D01*
X182947823Y-94152846D02*
X183059054Y-94183713D01*
X183059054Y-94183713D02*
X183168521Y-94219932D01*
X183168521Y-94219932D02*
X183276032Y-94261423D01*
X183276032Y-94261423D02*
X183381392Y-94308106D01*
X183381392Y-94308106D02*
X183484408Y-94359900D01*
X183484408Y-94359900D02*
X183584886Y-94416726D01*
X183584886Y-94416726D02*
X183682633Y-94478502D01*
X183682633Y-94478502D02*
X183777455Y-94545150D01*
X183777455Y-94545150D02*
X183869158Y-94616588D01*
X183869158Y-94616588D02*
X183957549Y-94692737D01*
X183957549Y-94692737D02*
X184042434Y-94773517D01*
X184734351Y-96443951D02*
X184734351Y-116180726D01*
X162635225Y-94081600D02*
X182372000Y-94081600D01*
X184734351Y-116180726D02*
X184731447Y-116297868D01*
X184731447Y-116297868D02*
X184722791Y-116414215D01*
X184722791Y-116414215D02*
X184708461Y-116529573D01*
X184708461Y-116529573D02*
X184688539Y-116643749D01*
X184688539Y-116643749D02*
X184663104Y-116756549D01*
X184663104Y-116756549D02*
X184632237Y-116867780D01*
X184632237Y-116867780D02*
X184596018Y-116977247D01*
X184596018Y-116977247D02*
X184554527Y-117084758D01*
X184554527Y-117084758D02*
X184507844Y-117190118D01*
X184507844Y-117190118D02*
X184456050Y-117293134D01*
X184456050Y-117293134D02*
X184399224Y-117393612D01*
X184399224Y-117393612D02*
X184337448Y-117491359D01*
X184337448Y-117491359D02*
X184270800Y-117586181D01*
X184270800Y-117586181D02*
X184199362Y-117677884D01*
X184199362Y-117677884D02*
X184123213Y-117766275D01*
X184123213Y-117766275D02*
X184042434Y-117851160D01*
X184042434Y-117851160D02*
X183957549Y-117931939D01*
X183957549Y-117931939D02*
X183869158Y-118008088D01*
X183869158Y-118008088D02*
X183777455Y-118079526D01*
X183777455Y-118079526D02*
X183682633Y-118146174D01*
X183682633Y-118146174D02*
X183584886Y-118207950D01*
X183584886Y-118207950D02*
X183484408Y-118264776D01*
X183484408Y-118264776D02*
X183381392Y-118316570D01*
X183381392Y-118316570D02*
X183276032Y-118363253D01*
X183276032Y-118363253D02*
X183168521Y-118404744D01*
X183168521Y-118404744D02*
X183059054Y-118440963D01*
X183059054Y-118440963D02*
X182947823Y-118471830D01*
X182947823Y-118471830D02*
X182835023Y-118497265D01*
X182835023Y-118497265D02*
X182720847Y-118517187D01*
X182720847Y-118517187D02*
X182605489Y-118531517D01*
X182605489Y-118531517D02*
X182489142Y-118540173D01*
X182489142Y-118540173D02*
X182372000Y-118543077D01*
X162635225Y-118543077D02*
X162518082Y-118540173D01*
X162518082Y-118540173D02*
X162401735Y-118531517D01*
X162401735Y-118531517D02*
X162286377Y-118517187D01*
X162286377Y-118517187D02*
X162172201Y-118497265D01*
X162172201Y-118497265D02*
X162059401Y-118471830D01*
X162059401Y-118471830D02*
X161948170Y-118440963D01*
X161948170Y-118440963D02*
X161838703Y-118404744D01*
X161838703Y-118404744D02*
X161731192Y-118363253D01*
X161731192Y-118363253D02*
X161625832Y-118316570D01*
X161625832Y-118316570D02*
X161522816Y-118264776D01*
X161522816Y-118264776D02*
X161422338Y-118207950D01*
X161422338Y-118207950D02*
X161324591Y-118146174D01*
X161324591Y-118146174D02*
X161229769Y-118079526D01*
X161229769Y-118079526D02*
X161138066Y-118008088D01*
X161138066Y-118008088D02*
X161049675Y-117931939D01*
X161049675Y-117931939D02*
X160964791Y-117851160D01*
X160964791Y-117851160D02*
X160884011Y-117766275D01*
X160884011Y-117766275D02*
X160807862Y-117677884D01*
X160807862Y-117677884D02*
X160736424Y-117586181D01*
X160736424Y-117586181D02*
X160669776Y-117491359D01*
X160669776Y-117491359D02*
X160608000Y-117393612D01*
X160608000Y-117393612D02*
X160551174Y-117293134D01*
X160551174Y-117293134D02*
X160499380Y-117190118D01*
X160499380Y-117190118D02*
X160452697Y-117084758D01*
X160452697Y-117084758D02*
X160411206Y-116977247D01*
X160411206Y-116977247D02*
X160374987Y-116867780D01*
X160374987Y-116867780D02*
X160344120Y-116756549D01*
X160344120Y-116756549D02*
X160318685Y-116643749D01*
X160318685Y-116643749D02*
X160298763Y-116529573D01*
X160298763Y-116529573D02*
X160284433Y-116414215D01*
X160284433Y-116414215D02*
X160275777Y-116297868D01*
X160275777Y-116297868D02*
X160272874Y-116180726D01*
X182372000Y-118543077D02*
X162635225Y-118543077D01*
X160272874Y-96443951D02*
X160275777Y-96326808D01*
X160275777Y-96326808D02*
X160284433Y-96210461D01*
X160284433Y-96210461D02*
X160298763Y-96095103D01*
X160298763Y-96095103D02*
X160318685Y-95980927D01*
X160318685Y-95980927D02*
X160344120Y-95868127D01*
X160344120Y-95868127D02*
X160374987Y-95756896D01*
X160374987Y-95756896D02*
X160411206Y-95647429D01*
X160411206Y-95647429D02*
X160452697Y-95539918D01*
X160452697Y-95539918D02*
X160499380Y-95434558D01*
X160499380Y-95434558D02*
X160551174Y-95331542D01*
X160551174Y-95331542D02*
X160608000Y-95231064D01*
X160608000Y-95231064D02*
X160669776Y-95133317D01*
X160669776Y-95133317D02*
X160736424Y-95038495D01*
X160736424Y-95038495D02*
X160807862Y-94946792D01*
X160807862Y-94946792D02*
X160884011Y-94858401D01*
X160884011Y-94858401D02*
X160964791Y-94773517D01*
X160964791Y-94773517D02*
X161049675Y-94692737D01*
X161049675Y-94692737D02*
X161138066Y-94616588D01*
X161138066Y-94616588D02*
X161229769Y-94545150D01*
X161229769Y-94545150D02*
X161324591Y-94478502D01*
X161324591Y-94478502D02*
X161422338Y-94416726D01*
X161422338Y-94416726D02*
X161522816Y-94359900D01*
X161522816Y-94359900D02*
X161625832Y-94308106D01*
X161625832Y-94308106D02*
X161731192Y-94261423D01*
X161731192Y-94261423D02*
X161838703Y-94219932D01*
X161838703Y-94219932D02*
X161948170Y-94183713D01*
X161948170Y-94183713D02*
X162059401Y-94152846D01*
X162059401Y-94152846D02*
X162172201Y-94127411D01*
X162172201Y-94127411D02*
X162286377Y-94107489D01*
X162286377Y-94107489D02*
X162401735Y-94093159D01*
X162401735Y-94093159D02*
X162518082Y-94084503D01*
X162518082Y-94084503D02*
X162635225Y-94081600D01*
X160272874Y-116180726D02*
X160272874Y-96443951D01*
X162635225Y-94081600D02*
X162635225Y-94081600D01*
X184042434Y-94773517D02*
X184123213Y-94858401D01*
X184123213Y-94858401D02*
X184199362Y-94946792D01*
X184199362Y-94946792D02*
X184270800Y-95038495D01*
X184270800Y-95038495D02*
X184337448Y-95133317D01*
X184337448Y-95133317D02*
X184399224Y-95231064D01*
X184399224Y-95231064D02*
X184456050Y-95331542D01*
X184456050Y-95331542D02*
X184507844Y-95434558D01*
X184507844Y-95434558D02*
X184554527Y-95539918D01*
X184554527Y-95539918D02*
X184596018Y-95647429D01*
X184596018Y-95647429D02*
X184632237Y-95756896D01*
X184632237Y-95756896D02*
X184663104Y-95868127D01*
X184663104Y-95868127D02*
X184688539Y-95980927D01*
X184688539Y-95980927D02*
X184708461Y-96095103D01*
X184708461Y-96095103D02*
X184722791Y-96210461D01*
X184722791Y-96210461D02*
X184731447Y-96326808D01*
X184731447Y-96326808D02*
X184734351Y-96443951D01*
%TO.C,U12*%
X98490526Y-122072400D02*
X98607668Y-122075303D01*
X98607668Y-122075303D02*
X98724015Y-122083959D01*
X98724015Y-122083959D02*
X98839373Y-122098289D01*
X98839373Y-122098289D02*
X98953549Y-122118211D01*
X98953549Y-122118211D02*
X99066349Y-122143646D01*
X99066349Y-122143646D02*
X99177580Y-122174513D01*
X99177580Y-122174513D02*
X99287047Y-122210732D01*
X99287047Y-122210732D02*
X99394558Y-122252223D01*
X99394558Y-122252223D02*
X99499918Y-122298906D01*
X99499918Y-122298906D02*
X99602934Y-122350700D01*
X99602934Y-122350700D02*
X99703412Y-122407526D01*
X99703412Y-122407526D02*
X99801159Y-122469302D01*
X99801159Y-122469302D02*
X99895981Y-122535950D01*
X99895981Y-122535950D02*
X99987684Y-122607388D01*
X99987684Y-122607388D02*
X100076075Y-122683537D01*
X100076075Y-122683537D02*
X100160960Y-122764317D01*
X100852877Y-124434751D02*
X100852877Y-144171526D01*
X78753751Y-122072400D02*
X98490526Y-122072400D01*
X100852877Y-144171526D02*
X100849973Y-144288668D01*
X100849973Y-144288668D02*
X100841317Y-144405015D01*
X100841317Y-144405015D02*
X100826987Y-144520373D01*
X100826987Y-144520373D02*
X100807065Y-144634549D01*
X100807065Y-144634549D02*
X100781630Y-144747349D01*
X100781630Y-144747349D02*
X100750763Y-144858580D01*
X100750763Y-144858580D02*
X100714544Y-144968047D01*
X100714544Y-144968047D02*
X100673053Y-145075558D01*
X100673053Y-145075558D02*
X100626370Y-145180918D01*
X100626370Y-145180918D02*
X100574576Y-145283934D01*
X100574576Y-145283934D02*
X100517750Y-145384412D01*
X100517750Y-145384412D02*
X100455974Y-145482159D01*
X100455974Y-145482159D02*
X100389326Y-145576981D01*
X100389326Y-145576981D02*
X100317888Y-145668684D01*
X100317888Y-145668684D02*
X100241739Y-145757075D01*
X100241739Y-145757075D02*
X100160960Y-145841960D01*
X100160960Y-145841960D02*
X100076075Y-145922739D01*
X100076075Y-145922739D02*
X99987684Y-145998888D01*
X99987684Y-145998888D02*
X99895981Y-146070326D01*
X99895981Y-146070326D02*
X99801159Y-146136974D01*
X99801159Y-146136974D02*
X99703412Y-146198750D01*
X99703412Y-146198750D02*
X99602934Y-146255576D01*
X99602934Y-146255576D02*
X99499918Y-146307370D01*
X99499918Y-146307370D02*
X99394558Y-146354053D01*
X99394558Y-146354053D02*
X99287047Y-146395544D01*
X99287047Y-146395544D02*
X99177580Y-146431763D01*
X99177580Y-146431763D02*
X99066349Y-146462630D01*
X99066349Y-146462630D02*
X98953549Y-146488065D01*
X98953549Y-146488065D02*
X98839373Y-146507987D01*
X98839373Y-146507987D02*
X98724015Y-146522317D01*
X98724015Y-146522317D02*
X98607668Y-146530973D01*
X98607668Y-146530973D02*
X98490526Y-146533877D01*
X78753751Y-146533877D02*
X78636608Y-146530973D01*
X78636608Y-146530973D02*
X78520261Y-146522317D01*
X78520261Y-146522317D02*
X78404903Y-146507987D01*
X78404903Y-146507987D02*
X78290727Y-146488065D01*
X78290727Y-146488065D02*
X78177927Y-146462630D01*
X78177927Y-146462630D02*
X78066696Y-146431763D01*
X78066696Y-146431763D02*
X77957229Y-146395544D01*
X77957229Y-146395544D02*
X77849718Y-146354053D01*
X77849718Y-146354053D02*
X77744358Y-146307370D01*
X77744358Y-146307370D02*
X77641342Y-146255576D01*
X77641342Y-146255576D02*
X77540864Y-146198750D01*
X77540864Y-146198750D02*
X77443117Y-146136974D01*
X77443117Y-146136974D02*
X77348295Y-146070326D01*
X77348295Y-146070326D02*
X77256592Y-145998888D01*
X77256592Y-145998888D02*
X77168201Y-145922739D01*
X77168201Y-145922739D02*
X77083317Y-145841960D01*
X77083317Y-145841960D02*
X77002537Y-145757075D01*
X77002537Y-145757075D02*
X76926388Y-145668684D01*
X76926388Y-145668684D02*
X76854950Y-145576981D01*
X76854950Y-145576981D02*
X76788302Y-145482159D01*
X76788302Y-145482159D02*
X76726526Y-145384412D01*
X76726526Y-145384412D02*
X76669700Y-145283934D01*
X76669700Y-145283934D02*
X76617906Y-145180918D01*
X76617906Y-145180918D02*
X76571223Y-145075558D01*
X76571223Y-145075558D02*
X76529732Y-144968047D01*
X76529732Y-144968047D02*
X76493513Y-144858580D01*
X76493513Y-144858580D02*
X76462646Y-144747349D01*
X76462646Y-144747349D02*
X76437211Y-144634549D01*
X76437211Y-144634549D02*
X76417289Y-144520373D01*
X76417289Y-144520373D02*
X76402959Y-144405015D01*
X76402959Y-144405015D02*
X76394303Y-144288668D01*
X76394303Y-144288668D02*
X76391400Y-144171526D01*
X98490526Y-146533877D02*
X78753751Y-146533877D01*
X76391400Y-124434751D02*
X76394303Y-124317608D01*
X76394303Y-124317608D02*
X76402959Y-124201261D01*
X76402959Y-124201261D02*
X76417289Y-124085903D01*
X76417289Y-124085903D02*
X76437211Y-123971727D01*
X76437211Y-123971727D02*
X76462646Y-123858927D01*
X76462646Y-123858927D02*
X76493513Y-123747696D01*
X76493513Y-123747696D02*
X76529732Y-123638229D01*
X76529732Y-123638229D02*
X76571223Y-123530718D01*
X76571223Y-123530718D02*
X76617906Y-123425358D01*
X76617906Y-123425358D02*
X76669700Y-123322342D01*
X76669700Y-123322342D02*
X76726526Y-123221864D01*
X76726526Y-123221864D02*
X76788302Y-123124117D01*
X76788302Y-123124117D02*
X76854950Y-123029295D01*
X76854950Y-123029295D02*
X76926388Y-122937592D01*
X76926388Y-122937592D02*
X77002537Y-122849201D01*
X77002537Y-122849201D02*
X77083317Y-122764317D01*
X77083317Y-122764317D02*
X77168201Y-122683537D01*
X77168201Y-122683537D02*
X77256592Y-122607388D01*
X77256592Y-122607388D02*
X77348295Y-122535950D01*
X77348295Y-122535950D02*
X77443117Y-122469302D01*
X77443117Y-122469302D02*
X77540864Y-122407526D01*
X77540864Y-122407526D02*
X77641342Y-122350700D01*
X77641342Y-122350700D02*
X77744358Y-122298906D01*
X77744358Y-122298906D02*
X77849718Y-122252223D01*
X77849718Y-122252223D02*
X77957229Y-122210732D01*
X77957229Y-122210732D02*
X78066696Y-122174513D01*
X78066696Y-122174513D02*
X78177927Y-122143646D01*
X78177927Y-122143646D02*
X78290727Y-122118211D01*
X78290727Y-122118211D02*
X78404903Y-122098289D01*
X78404903Y-122098289D02*
X78520261Y-122083959D01*
X78520261Y-122083959D02*
X78636608Y-122075303D01*
X78636608Y-122075303D02*
X78753751Y-122072400D01*
X76391400Y-144171526D02*
X76391400Y-124434751D01*
X78753751Y-122072400D02*
X78753751Y-122072400D01*
X100160960Y-122764317D02*
X100241739Y-122849201D01*
X100241739Y-122849201D02*
X100317888Y-122937592D01*
X100317888Y-122937592D02*
X100389326Y-123029295D01*
X100389326Y-123029295D02*
X100455974Y-123124117D01*
X100455974Y-123124117D02*
X100517750Y-123221864D01*
X100517750Y-123221864D02*
X100574576Y-123322342D01*
X100574576Y-123322342D02*
X100626370Y-123425358D01*
X100626370Y-123425358D02*
X100673053Y-123530718D01*
X100673053Y-123530718D02*
X100714544Y-123638229D01*
X100714544Y-123638229D02*
X100750763Y-123747696D01*
X100750763Y-123747696D02*
X100781630Y-123858927D01*
X100781630Y-123858927D02*
X100807065Y-123971727D01*
X100807065Y-123971727D02*
X100826987Y-124085903D01*
X100826987Y-124085903D02*
X100841317Y-124201261D01*
X100841317Y-124201261D02*
X100849973Y-124317608D01*
X100849973Y-124317608D02*
X100852877Y-124434751D01*
%TO.C,U11*%
X182372000Y-66090800D02*
X182489142Y-66093703D01*
X182489142Y-66093703D02*
X182605489Y-66102359D01*
X182605489Y-66102359D02*
X182720847Y-66116689D01*
X182720847Y-66116689D02*
X182835023Y-66136611D01*
X182835023Y-66136611D02*
X182947823Y-66162046D01*
X182947823Y-66162046D02*
X183059054Y-66192913D01*
X183059054Y-66192913D02*
X183168521Y-66229132D01*
X183168521Y-66229132D02*
X183276032Y-66270623D01*
X183276032Y-66270623D02*
X183381392Y-66317306D01*
X183381392Y-66317306D02*
X183484408Y-66369100D01*
X183484408Y-66369100D02*
X183584886Y-66425926D01*
X183584886Y-66425926D02*
X183682633Y-66487702D01*
X183682633Y-66487702D02*
X183777455Y-66554350D01*
X183777455Y-66554350D02*
X183869158Y-66625788D01*
X183869158Y-66625788D02*
X183957549Y-66701937D01*
X183957549Y-66701937D02*
X184042434Y-66782717D01*
X184734351Y-68453151D02*
X184734351Y-88189926D01*
X162635225Y-66090800D02*
X182372000Y-66090800D01*
X184734351Y-88189926D02*
X184731447Y-88307068D01*
X184731447Y-88307068D02*
X184722791Y-88423415D01*
X184722791Y-88423415D02*
X184708461Y-88538773D01*
X184708461Y-88538773D02*
X184688539Y-88652949D01*
X184688539Y-88652949D02*
X184663104Y-88765749D01*
X184663104Y-88765749D02*
X184632237Y-88876980D01*
X184632237Y-88876980D02*
X184596018Y-88986447D01*
X184596018Y-88986447D02*
X184554527Y-89093958D01*
X184554527Y-89093958D02*
X184507844Y-89199318D01*
X184507844Y-89199318D02*
X184456050Y-89302334D01*
X184456050Y-89302334D02*
X184399224Y-89402812D01*
X184399224Y-89402812D02*
X184337448Y-89500559D01*
X184337448Y-89500559D02*
X184270800Y-89595381D01*
X184270800Y-89595381D02*
X184199362Y-89687084D01*
X184199362Y-89687084D02*
X184123213Y-89775475D01*
X184123213Y-89775475D02*
X184042434Y-89860360D01*
X184042434Y-89860360D02*
X183957549Y-89941139D01*
X183957549Y-89941139D02*
X183869158Y-90017288D01*
X183869158Y-90017288D02*
X183777455Y-90088726D01*
X183777455Y-90088726D02*
X183682633Y-90155374D01*
X183682633Y-90155374D02*
X183584886Y-90217150D01*
X183584886Y-90217150D02*
X183484408Y-90273976D01*
X183484408Y-90273976D02*
X183381392Y-90325770D01*
X183381392Y-90325770D02*
X183276032Y-90372453D01*
X183276032Y-90372453D02*
X183168521Y-90413944D01*
X183168521Y-90413944D02*
X183059054Y-90450163D01*
X183059054Y-90450163D02*
X182947823Y-90481030D01*
X182947823Y-90481030D02*
X182835023Y-90506465D01*
X182835023Y-90506465D02*
X182720847Y-90526387D01*
X182720847Y-90526387D02*
X182605489Y-90540717D01*
X182605489Y-90540717D02*
X182489142Y-90549373D01*
X182489142Y-90549373D02*
X182372000Y-90552277D01*
X162635225Y-90552277D02*
X162518082Y-90549373D01*
X162518082Y-90549373D02*
X162401735Y-90540717D01*
X162401735Y-90540717D02*
X162286377Y-90526387D01*
X162286377Y-90526387D02*
X162172201Y-90506465D01*
X162172201Y-90506465D02*
X162059401Y-90481030D01*
X162059401Y-90481030D02*
X161948170Y-90450163D01*
X161948170Y-90450163D02*
X161838703Y-90413944D01*
X161838703Y-90413944D02*
X161731192Y-90372453D01*
X161731192Y-90372453D02*
X161625832Y-90325770D01*
X161625832Y-90325770D02*
X161522816Y-90273976D01*
X161522816Y-90273976D02*
X161422338Y-90217150D01*
X161422338Y-90217150D02*
X161324591Y-90155374D01*
X161324591Y-90155374D02*
X161229769Y-90088726D01*
X161229769Y-90088726D02*
X161138066Y-90017288D01*
X161138066Y-90017288D02*
X161049675Y-89941139D01*
X161049675Y-89941139D02*
X160964791Y-89860360D01*
X160964791Y-89860360D02*
X160884011Y-89775475D01*
X160884011Y-89775475D02*
X160807862Y-89687084D01*
X160807862Y-89687084D02*
X160736424Y-89595381D01*
X160736424Y-89595381D02*
X160669776Y-89500559D01*
X160669776Y-89500559D02*
X160608000Y-89402812D01*
X160608000Y-89402812D02*
X160551174Y-89302334D01*
X160551174Y-89302334D02*
X160499380Y-89199318D01*
X160499380Y-89199318D02*
X160452697Y-89093958D01*
X160452697Y-89093958D02*
X160411206Y-88986447D01*
X160411206Y-88986447D02*
X160374987Y-88876980D01*
X160374987Y-88876980D02*
X160344120Y-88765749D01*
X160344120Y-88765749D02*
X160318685Y-88652949D01*
X160318685Y-88652949D02*
X160298763Y-88538773D01*
X160298763Y-88538773D02*
X160284433Y-88423415D01*
X160284433Y-88423415D02*
X160275777Y-88307068D01*
X160275777Y-88307068D02*
X160272874Y-88189926D01*
X182372000Y-90552277D02*
X162635225Y-90552277D01*
X160272874Y-68453151D02*
X160275777Y-68336008D01*
X160275777Y-68336008D02*
X160284433Y-68219661D01*
X160284433Y-68219661D02*
X160298763Y-68104303D01*
X160298763Y-68104303D02*
X160318685Y-67990127D01*
X160318685Y-67990127D02*
X160344120Y-67877327D01*
X160344120Y-67877327D02*
X160374987Y-67766096D01*
X160374987Y-67766096D02*
X160411206Y-67656629D01*
X160411206Y-67656629D02*
X160452697Y-67549118D01*
X160452697Y-67549118D02*
X160499380Y-67443758D01*
X160499380Y-67443758D02*
X160551174Y-67340742D01*
X160551174Y-67340742D02*
X160608000Y-67240264D01*
X160608000Y-67240264D02*
X160669776Y-67142517D01*
X160669776Y-67142517D02*
X160736424Y-67047695D01*
X160736424Y-67047695D02*
X160807862Y-66955992D01*
X160807862Y-66955992D02*
X160884011Y-66867601D01*
X160884011Y-66867601D02*
X160964791Y-66782717D01*
X160964791Y-66782717D02*
X161049675Y-66701937D01*
X161049675Y-66701937D02*
X161138066Y-66625788D01*
X161138066Y-66625788D02*
X161229769Y-66554350D01*
X161229769Y-66554350D02*
X161324591Y-66487702D01*
X161324591Y-66487702D02*
X161422338Y-66425926D01*
X161422338Y-66425926D02*
X161522816Y-66369100D01*
X161522816Y-66369100D02*
X161625832Y-66317306D01*
X161625832Y-66317306D02*
X161731192Y-66270623D01*
X161731192Y-66270623D02*
X161838703Y-66229132D01*
X161838703Y-66229132D02*
X161948170Y-66192913D01*
X161948170Y-66192913D02*
X162059401Y-66162046D01*
X162059401Y-66162046D02*
X162172201Y-66136611D01*
X162172201Y-66136611D02*
X162286377Y-66116689D01*
X162286377Y-66116689D02*
X162401735Y-66102359D01*
X162401735Y-66102359D02*
X162518082Y-66093703D01*
X162518082Y-66093703D02*
X162635225Y-66090800D01*
X160272874Y-88189926D02*
X160272874Y-68453151D01*
X162635225Y-66090800D02*
X162635225Y-66090800D01*
X184042434Y-66782717D02*
X184123213Y-66867601D01*
X184123213Y-66867601D02*
X184199362Y-66955992D01*
X184199362Y-66955992D02*
X184270800Y-67047695D01*
X184270800Y-67047695D02*
X184337448Y-67142517D01*
X184337448Y-67142517D02*
X184399224Y-67240264D01*
X184399224Y-67240264D02*
X184456050Y-67340742D01*
X184456050Y-67340742D02*
X184507844Y-67443758D01*
X184507844Y-67443758D02*
X184554527Y-67549118D01*
X184554527Y-67549118D02*
X184596018Y-67656629D01*
X184596018Y-67656629D02*
X184632237Y-67766096D01*
X184632237Y-67766096D02*
X184663104Y-67877327D01*
X184663104Y-67877327D02*
X184688539Y-67990127D01*
X184688539Y-67990127D02*
X184708461Y-68104303D01*
X184708461Y-68104303D02*
X184722791Y-68219661D01*
X184722791Y-68219661D02*
X184731447Y-68336008D01*
X184731447Y-68336008D02*
X184734351Y-68453151D01*
%TO.C,U10*%
X154347332Y-94081600D02*
X154464474Y-94084503D01*
X154464474Y-94084503D02*
X154580821Y-94093159D01*
X154580821Y-94093159D02*
X154696179Y-94107489D01*
X154696179Y-94107489D02*
X154810355Y-94127411D01*
X154810355Y-94127411D02*
X154923155Y-94152846D01*
X154923155Y-94152846D02*
X155034386Y-94183713D01*
X155034386Y-94183713D02*
X155143853Y-94219932D01*
X155143853Y-94219932D02*
X155251364Y-94261423D01*
X155251364Y-94261423D02*
X155356724Y-94308106D01*
X155356724Y-94308106D02*
X155459740Y-94359900D01*
X155459740Y-94359900D02*
X155560218Y-94416726D01*
X155560218Y-94416726D02*
X155657965Y-94478502D01*
X155657965Y-94478502D02*
X155752787Y-94545150D01*
X155752787Y-94545150D02*
X155844490Y-94616588D01*
X155844490Y-94616588D02*
X155932881Y-94692737D01*
X155932881Y-94692737D02*
X156017766Y-94773517D01*
X156709683Y-96443951D02*
X156709683Y-116180726D01*
X134610557Y-94081600D02*
X154347332Y-94081600D01*
X156709683Y-116180726D02*
X156706779Y-116297868D01*
X156706779Y-116297868D02*
X156698123Y-116414215D01*
X156698123Y-116414215D02*
X156683793Y-116529573D01*
X156683793Y-116529573D02*
X156663871Y-116643749D01*
X156663871Y-116643749D02*
X156638436Y-116756549D01*
X156638436Y-116756549D02*
X156607569Y-116867780D01*
X156607569Y-116867780D02*
X156571350Y-116977247D01*
X156571350Y-116977247D02*
X156529859Y-117084758D01*
X156529859Y-117084758D02*
X156483176Y-117190118D01*
X156483176Y-117190118D02*
X156431382Y-117293134D01*
X156431382Y-117293134D02*
X156374556Y-117393612D01*
X156374556Y-117393612D02*
X156312780Y-117491359D01*
X156312780Y-117491359D02*
X156246132Y-117586181D01*
X156246132Y-117586181D02*
X156174694Y-117677884D01*
X156174694Y-117677884D02*
X156098545Y-117766275D01*
X156098545Y-117766275D02*
X156017766Y-117851160D01*
X156017766Y-117851160D02*
X155932881Y-117931939D01*
X155932881Y-117931939D02*
X155844490Y-118008088D01*
X155844490Y-118008088D02*
X155752787Y-118079526D01*
X155752787Y-118079526D02*
X155657965Y-118146174D01*
X155657965Y-118146174D02*
X155560218Y-118207950D01*
X155560218Y-118207950D02*
X155459740Y-118264776D01*
X155459740Y-118264776D02*
X155356724Y-118316570D01*
X155356724Y-118316570D02*
X155251364Y-118363253D01*
X155251364Y-118363253D02*
X155143853Y-118404744D01*
X155143853Y-118404744D02*
X155034386Y-118440963D01*
X155034386Y-118440963D02*
X154923155Y-118471830D01*
X154923155Y-118471830D02*
X154810355Y-118497265D01*
X154810355Y-118497265D02*
X154696179Y-118517187D01*
X154696179Y-118517187D02*
X154580821Y-118531517D01*
X154580821Y-118531517D02*
X154464474Y-118540173D01*
X154464474Y-118540173D02*
X154347332Y-118543077D01*
X134610557Y-118543077D02*
X134493414Y-118540173D01*
X134493414Y-118540173D02*
X134377067Y-118531517D01*
X134377067Y-118531517D02*
X134261709Y-118517187D01*
X134261709Y-118517187D02*
X134147533Y-118497265D01*
X134147533Y-118497265D02*
X134034733Y-118471830D01*
X134034733Y-118471830D02*
X133923502Y-118440963D01*
X133923502Y-118440963D02*
X133814035Y-118404744D01*
X133814035Y-118404744D02*
X133706524Y-118363253D01*
X133706524Y-118363253D02*
X133601164Y-118316570D01*
X133601164Y-118316570D02*
X133498148Y-118264776D01*
X133498148Y-118264776D02*
X133397670Y-118207950D01*
X133397670Y-118207950D02*
X133299923Y-118146174D01*
X133299923Y-118146174D02*
X133205101Y-118079526D01*
X133205101Y-118079526D02*
X133113398Y-118008088D01*
X133113398Y-118008088D02*
X133025007Y-117931939D01*
X133025007Y-117931939D02*
X132940123Y-117851160D01*
X132940123Y-117851160D02*
X132859343Y-117766275D01*
X132859343Y-117766275D02*
X132783194Y-117677884D01*
X132783194Y-117677884D02*
X132711756Y-117586181D01*
X132711756Y-117586181D02*
X132645108Y-117491359D01*
X132645108Y-117491359D02*
X132583332Y-117393612D01*
X132583332Y-117393612D02*
X132526506Y-117293134D01*
X132526506Y-117293134D02*
X132474712Y-117190118D01*
X132474712Y-117190118D02*
X132428029Y-117084758D01*
X132428029Y-117084758D02*
X132386538Y-116977247D01*
X132386538Y-116977247D02*
X132350319Y-116867780D01*
X132350319Y-116867780D02*
X132319452Y-116756549D01*
X132319452Y-116756549D02*
X132294017Y-116643749D01*
X132294017Y-116643749D02*
X132274095Y-116529573D01*
X132274095Y-116529573D02*
X132259765Y-116414215D01*
X132259765Y-116414215D02*
X132251109Y-116297868D01*
X132251109Y-116297868D02*
X132248206Y-116180726D01*
X154347332Y-118543077D02*
X134610557Y-118543077D01*
X132248206Y-96443951D02*
X132251109Y-96326808D01*
X132251109Y-96326808D02*
X132259765Y-96210461D01*
X132259765Y-96210461D02*
X132274095Y-96095103D01*
X132274095Y-96095103D02*
X132294017Y-95980927D01*
X132294017Y-95980927D02*
X132319452Y-95868127D01*
X132319452Y-95868127D02*
X132350319Y-95756896D01*
X132350319Y-95756896D02*
X132386538Y-95647429D01*
X132386538Y-95647429D02*
X132428029Y-95539918D01*
X132428029Y-95539918D02*
X132474712Y-95434558D01*
X132474712Y-95434558D02*
X132526506Y-95331542D01*
X132526506Y-95331542D02*
X132583332Y-95231064D01*
X132583332Y-95231064D02*
X132645108Y-95133317D01*
X132645108Y-95133317D02*
X132711756Y-95038495D01*
X132711756Y-95038495D02*
X132783194Y-94946792D01*
X132783194Y-94946792D02*
X132859343Y-94858401D01*
X132859343Y-94858401D02*
X132940123Y-94773517D01*
X132940123Y-94773517D02*
X133025007Y-94692737D01*
X133025007Y-94692737D02*
X133113398Y-94616588D01*
X133113398Y-94616588D02*
X133205101Y-94545150D01*
X133205101Y-94545150D02*
X133299923Y-94478502D01*
X133299923Y-94478502D02*
X133397670Y-94416726D01*
X133397670Y-94416726D02*
X133498148Y-94359900D01*
X133498148Y-94359900D02*
X133601164Y-94308106D01*
X133601164Y-94308106D02*
X133706524Y-94261423D01*
X133706524Y-94261423D02*
X133814035Y-94219932D01*
X133814035Y-94219932D02*
X133923502Y-94183713D01*
X133923502Y-94183713D02*
X134034733Y-94152846D01*
X134034733Y-94152846D02*
X134147533Y-94127411D01*
X134147533Y-94127411D02*
X134261709Y-94107489D01*
X134261709Y-94107489D02*
X134377067Y-94093159D01*
X134377067Y-94093159D02*
X134493414Y-94084503D01*
X134493414Y-94084503D02*
X134610557Y-94081600D01*
X132248206Y-116180726D02*
X132248206Y-96443951D01*
X134610557Y-94081600D02*
X134610557Y-94081600D01*
X156017766Y-94773517D02*
X156098545Y-94858401D01*
X156098545Y-94858401D02*
X156174694Y-94946792D01*
X156174694Y-94946792D02*
X156246132Y-95038495D01*
X156246132Y-95038495D02*
X156312780Y-95133317D01*
X156312780Y-95133317D02*
X156374556Y-95231064D01*
X156374556Y-95231064D02*
X156431382Y-95331542D01*
X156431382Y-95331542D02*
X156483176Y-95434558D01*
X156483176Y-95434558D02*
X156529859Y-95539918D01*
X156529859Y-95539918D02*
X156571350Y-95647429D01*
X156571350Y-95647429D02*
X156607569Y-95756896D01*
X156607569Y-95756896D02*
X156638436Y-95868127D01*
X156638436Y-95868127D02*
X156663871Y-95980927D01*
X156663871Y-95980927D02*
X156683793Y-96095103D01*
X156683793Y-96095103D02*
X156698123Y-96210461D01*
X156698123Y-96210461D02*
X156706779Y-96326808D01*
X156706779Y-96326808D02*
X156709683Y-96443951D01*
%TO.C,U9*%
X182372000Y-38100000D02*
X182489142Y-38102903D01*
X182489142Y-38102903D02*
X182605489Y-38111559D01*
X182605489Y-38111559D02*
X182720847Y-38125889D01*
X182720847Y-38125889D02*
X182835023Y-38145811D01*
X182835023Y-38145811D02*
X182947823Y-38171246D01*
X182947823Y-38171246D02*
X183059054Y-38202113D01*
X183059054Y-38202113D02*
X183168521Y-38238332D01*
X183168521Y-38238332D02*
X183276032Y-38279823D01*
X183276032Y-38279823D02*
X183381392Y-38326506D01*
X183381392Y-38326506D02*
X183484408Y-38378300D01*
X183484408Y-38378300D02*
X183584886Y-38435126D01*
X183584886Y-38435126D02*
X183682633Y-38496902D01*
X183682633Y-38496902D02*
X183777455Y-38563550D01*
X183777455Y-38563550D02*
X183869158Y-38634988D01*
X183869158Y-38634988D02*
X183957549Y-38711137D01*
X183957549Y-38711137D02*
X184042434Y-38791917D01*
X184734351Y-40462351D02*
X184734351Y-60199126D01*
X162635225Y-38100000D02*
X182372000Y-38100000D01*
X184734351Y-60199126D02*
X184731447Y-60316268D01*
X184731447Y-60316268D02*
X184722791Y-60432615D01*
X184722791Y-60432615D02*
X184708461Y-60547973D01*
X184708461Y-60547973D02*
X184688539Y-60662149D01*
X184688539Y-60662149D02*
X184663104Y-60774949D01*
X184663104Y-60774949D02*
X184632237Y-60886180D01*
X184632237Y-60886180D02*
X184596018Y-60995647D01*
X184596018Y-60995647D02*
X184554527Y-61103158D01*
X184554527Y-61103158D02*
X184507844Y-61208518D01*
X184507844Y-61208518D02*
X184456050Y-61311534D01*
X184456050Y-61311534D02*
X184399224Y-61412012D01*
X184399224Y-61412012D02*
X184337448Y-61509759D01*
X184337448Y-61509759D02*
X184270800Y-61604581D01*
X184270800Y-61604581D02*
X184199362Y-61696284D01*
X184199362Y-61696284D02*
X184123213Y-61784675D01*
X184123213Y-61784675D02*
X184042434Y-61869560D01*
X184042434Y-61869560D02*
X183957549Y-61950339D01*
X183957549Y-61950339D02*
X183869158Y-62026488D01*
X183869158Y-62026488D02*
X183777455Y-62097926D01*
X183777455Y-62097926D02*
X183682633Y-62164574D01*
X183682633Y-62164574D02*
X183584886Y-62226350D01*
X183584886Y-62226350D02*
X183484408Y-62283176D01*
X183484408Y-62283176D02*
X183381392Y-62334970D01*
X183381392Y-62334970D02*
X183276032Y-62381653D01*
X183276032Y-62381653D02*
X183168521Y-62423144D01*
X183168521Y-62423144D02*
X183059054Y-62459363D01*
X183059054Y-62459363D02*
X182947823Y-62490230D01*
X182947823Y-62490230D02*
X182835023Y-62515665D01*
X182835023Y-62515665D02*
X182720847Y-62535587D01*
X182720847Y-62535587D02*
X182605489Y-62549917D01*
X182605489Y-62549917D02*
X182489142Y-62558573D01*
X182489142Y-62558573D02*
X182372000Y-62561477D01*
X162635225Y-62561477D02*
X162518082Y-62558573D01*
X162518082Y-62558573D02*
X162401735Y-62549917D01*
X162401735Y-62549917D02*
X162286377Y-62535587D01*
X162286377Y-62535587D02*
X162172201Y-62515665D01*
X162172201Y-62515665D02*
X162059401Y-62490230D01*
X162059401Y-62490230D02*
X161948170Y-62459363D01*
X161948170Y-62459363D02*
X161838703Y-62423144D01*
X161838703Y-62423144D02*
X161731192Y-62381653D01*
X161731192Y-62381653D02*
X161625832Y-62334970D01*
X161625832Y-62334970D02*
X161522816Y-62283176D01*
X161522816Y-62283176D02*
X161422338Y-62226350D01*
X161422338Y-62226350D02*
X161324591Y-62164574D01*
X161324591Y-62164574D02*
X161229769Y-62097926D01*
X161229769Y-62097926D02*
X161138066Y-62026488D01*
X161138066Y-62026488D02*
X161049675Y-61950339D01*
X161049675Y-61950339D02*
X160964791Y-61869560D01*
X160964791Y-61869560D02*
X160884011Y-61784675D01*
X160884011Y-61784675D02*
X160807862Y-61696284D01*
X160807862Y-61696284D02*
X160736424Y-61604581D01*
X160736424Y-61604581D02*
X160669776Y-61509759D01*
X160669776Y-61509759D02*
X160608000Y-61412012D01*
X160608000Y-61412012D02*
X160551174Y-61311534D01*
X160551174Y-61311534D02*
X160499380Y-61208518D01*
X160499380Y-61208518D02*
X160452697Y-61103158D01*
X160452697Y-61103158D02*
X160411206Y-60995647D01*
X160411206Y-60995647D02*
X160374987Y-60886180D01*
X160374987Y-60886180D02*
X160344120Y-60774949D01*
X160344120Y-60774949D02*
X160318685Y-60662149D01*
X160318685Y-60662149D02*
X160298763Y-60547973D01*
X160298763Y-60547973D02*
X160284433Y-60432615D01*
X160284433Y-60432615D02*
X160275777Y-60316268D01*
X160275777Y-60316268D02*
X160272874Y-60199126D01*
X182372000Y-62561477D02*
X162635225Y-62561477D01*
X160272874Y-40462351D02*
X160275777Y-40345208D01*
X160275777Y-40345208D02*
X160284433Y-40228861D01*
X160284433Y-40228861D02*
X160298763Y-40113503D01*
X160298763Y-40113503D02*
X160318685Y-39999327D01*
X160318685Y-39999327D02*
X160344120Y-39886527D01*
X160344120Y-39886527D02*
X160374987Y-39775296D01*
X160374987Y-39775296D02*
X160411206Y-39665829D01*
X160411206Y-39665829D02*
X160452697Y-39558318D01*
X160452697Y-39558318D02*
X160499380Y-39452958D01*
X160499380Y-39452958D02*
X160551174Y-39349942D01*
X160551174Y-39349942D02*
X160608000Y-39249464D01*
X160608000Y-39249464D02*
X160669776Y-39151717D01*
X160669776Y-39151717D02*
X160736424Y-39056895D01*
X160736424Y-39056895D02*
X160807862Y-38965192D01*
X160807862Y-38965192D02*
X160884011Y-38876801D01*
X160884011Y-38876801D02*
X160964791Y-38791917D01*
X160964791Y-38791917D02*
X161049675Y-38711137D01*
X161049675Y-38711137D02*
X161138066Y-38634988D01*
X161138066Y-38634988D02*
X161229769Y-38563550D01*
X161229769Y-38563550D02*
X161324591Y-38496902D01*
X161324591Y-38496902D02*
X161422338Y-38435126D01*
X161422338Y-38435126D02*
X161522816Y-38378300D01*
X161522816Y-38378300D02*
X161625832Y-38326506D01*
X161625832Y-38326506D02*
X161731192Y-38279823D01*
X161731192Y-38279823D02*
X161838703Y-38238332D01*
X161838703Y-38238332D02*
X161948170Y-38202113D01*
X161948170Y-38202113D02*
X162059401Y-38171246D01*
X162059401Y-38171246D02*
X162172201Y-38145811D01*
X162172201Y-38145811D02*
X162286377Y-38125889D01*
X162286377Y-38125889D02*
X162401735Y-38111559D01*
X162401735Y-38111559D02*
X162518082Y-38102903D01*
X162518082Y-38102903D02*
X162635225Y-38100000D01*
X160272874Y-60199126D02*
X160272874Y-40462351D01*
X162635225Y-38100000D02*
X162635225Y-38100000D01*
X184042434Y-38791917D02*
X184123213Y-38876801D01*
X184123213Y-38876801D02*
X184199362Y-38965192D01*
X184199362Y-38965192D02*
X184270800Y-39056895D01*
X184270800Y-39056895D02*
X184337448Y-39151717D01*
X184337448Y-39151717D02*
X184399224Y-39249464D01*
X184399224Y-39249464D02*
X184456050Y-39349942D01*
X184456050Y-39349942D02*
X184507844Y-39452958D01*
X184507844Y-39452958D02*
X184554527Y-39558318D01*
X184554527Y-39558318D02*
X184596018Y-39665829D01*
X184596018Y-39665829D02*
X184632237Y-39775296D01*
X184632237Y-39775296D02*
X184663104Y-39886527D01*
X184663104Y-39886527D02*
X184688539Y-39999327D01*
X184688539Y-39999327D02*
X184708461Y-40113503D01*
X184708461Y-40113503D02*
X184722791Y-40228861D01*
X184722791Y-40228861D02*
X184731447Y-40345208D01*
X184731447Y-40345208D02*
X184734351Y-40462351D01*
%TO.C,U8*%
X154347332Y-66090800D02*
X154464474Y-66093703D01*
X154464474Y-66093703D02*
X154580821Y-66102359D01*
X154580821Y-66102359D02*
X154696179Y-66116689D01*
X154696179Y-66116689D02*
X154810355Y-66136611D01*
X154810355Y-66136611D02*
X154923155Y-66162046D01*
X154923155Y-66162046D02*
X155034386Y-66192913D01*
X155034386Y-66192913D02*
X155143853Y-66229132D01*
X155143853Y-66229132D02*
X155251364Y-66270623D01*
X155251364Y-66270623D02*
X155356724Y-66317306D01*
X155356724Y-66317306D02*
X155459740Y-66369100D01*
X155459740Y-66369100D02*
X155560218Y-66425926D01*
X155560218Y-66425926D02*
X155657965Y-66487702D01*
X155657965Y-66487702D02*
X155752787Y-66554350D01*
X155752787Y-66554350D02*
X155844490Y-66625788D01*
X155844490Y-66625788D02*
X155932881Y-66701937D01*
X155932881Y-66701937D02*
X156017766Y-66782717D01*
X156709683Y-68453151D02*
X156709683Y-88189926D01*
X134610557Y-66090800D02*
X154347332Y-66090800D01*
X156709683Y-88189926D02*
X156706779Y-88307068D01*
X156706779Y-88307068D02*
X156698123Y-88423415D01*
X156698123Y-88423415D02*
X156683793Y-88538773D01*
X156683793Y-88538773D02*
X156663871Y-88652949D01*
X156663871Y-88652949D02*
X156638436Y-88765749D01*
X156638436Y-88765749D02*
X156607569Y-88876980D01*
X156607569Y-88876980D02*
X156571350Y-88986447D01*
X156571350Y-88986447D02*
X156529859Y-89093958D01*
X156529859Y-89093958D02*
X156483176Y-89199318D01*
X156483176Y-89199318D02*
X156431382Y-89302334D01*
X156431382Y-89302334D02*
X156374556Y-89402812D01*
X156374556Y-89402812D02*
X156312780Y-89500559D01*
X156312780Y-89500559D02*
X156246132Y-89595381D01*
X156246132Y-89595381D02*
X156174694Y-89687084D01*
X156174694Y-89687084D02*
X156098545Y-89775475D01*
X156098545Y-89775475D02*
X156017766Y-89860360D01*
X156017766Y-89860360D02*
X155932881Y-89941139D01*
X155932881Y-89941139D02*
X155844490Y-90017288D01*
X155844490Y-90017288D02*
X155752787Y-90088726D01*
X155752787Y-90088726D02*
X155657965Y-90155374D01*
X155657965Y-90155374D02*
X155560218Y-90217150D01*
X155560218Y-90217150D02*
X155459740Y-90273976D01*
X155459740Y-90273976D02*
X155356724Y-90325770D01*
X155356724Y-90325770D02*
X155251364Y-90372453D01*
X155251364Y-90372453D02*
X155143853Y-90413944D01*
X155143853Y-90413944D02*
X155034386Y-90450163D01*
X155034386Y-90450163D02*
X154923155Y-90481030D01*
X154923155Y-90481030D02*
X154810355Y-90506465D01*
X154810355Y-90506465D02*
X154696179Y-90526387D01*
X154696179Y-90526387D02*
X154580821Y-90540717D01*
X154580821Y-90540717D02*
X154464474Y-90549373D01*
X154464474Y-90549373D02*
X154347332Y-90552277D01*
X134610557Y-90552277D02*
X134493414Y-90549373D01*
X134493414Y-90549373D02*
X134377067Y-90540717D01*
X134377067Y-90540717D02*
X134261709Y-90526387D01*
X134261709Y-90526387D02*
X134147533Y-90506465D01*
X134147533Y-90506465D02*
X134034733Y-90481030D01*
X134034733Y-90481030D02*
X133923502Y-90450163D01*
X133923502Y-90450163D02*
X133814035Y-90413944D01*
X133814035Y-90413944D02*
X133706524Y-90372453D01*
X133706524Y-90372453D02*
X133601164Y-90325770D01*
X133601164Y-90325770D02*
X133498148Y-90273976D01*
X133498148Y-90273976D02*
X133397670Y-90217150D01*
X133397670Y-90217150D02*
X133299923Y-90155374D01*
X133299923Y-90155374D02*
X133205101Y-90088726D01*
X133205101Y-90088726D02*
X133113398Y-90017288D01*
X133113398Y-90017288D02*
X133025007Y-89941139D01*
X133025007Y-89941139D02*
X132940123Y-89860360D01*
X132940123Y-89860360D02*
X132859343Y-89775475D01*
X132859343Y-89775475D02*
X132783194Y-89687084D01*
X132783194Y-89687084D02*
X132711756Y-89595381D01*
X132711756Y-89595381D02*
X132645108Y-89500559D01*
X132645108Y-89500559D02*
X132583332Y-89402812D01*
X132583332Y-89402812D02*
X132526506Y-89302334D01*
X132526506Y-89302334D02*
X132474712Y-89199318D01*
X132474712Y-89199318D02*
X132428029Y-89093958D01*
X132428029Y-89093958D02*
X132386538Y-88986447D01*
X132386538Y-88986447D02*
X132350319Y-88876980D01*
X132350319Y-88876980D02*
X132319452Y-88765749D01*
X132319452Y-88765749D02*
X132294017Y-88652949D01*
X132294017Y-88652949D02*
X132274095Y-88538773D01*
X132274095Y-88538773D02*
X132259765Y-88423415D01*
X132259765Y-88423415D02*
X132251109Y-88307068D01*
X132251109Y-88307068D02*
X132248206Y-88189926D01*
X154347332Y-90552277D02*
X134610557Y-90552277D01*
X132248206Y-68453151D02*
X132251109Y-68336008D01*
X132251109Y-68336008D02*
X132259765Y-68219661D01*
X132259765Y-68219661D02*
X132274095Y-68104303D01*
X132274095Y-68104303D02*
X132294017Y-67990127D01*
X132294017Y-67990127D02*
X132319452Y-67877327D01*
X132319452Y-67877327D02*
X132350319Y-67766096D01*
X132350319Y-67766096D02*
X132386538Y-67656629D01*
X132386538Y-67656629D02*
X132428029Y-67549118D01*
X132428029Y-67549118D02*
X132474712Y-67443758D01*
X132474712Y-67443758D02*
X132526506Y-67340742D01*
X132526506Y-67340742D02*
X132583332Y-67240264D01*
X132583332Y-67240264D02*
X132645108Y-67142517D01*
X132645108Y-67142517D02*
X132711756Y-67047695D01*
X132711756Y-67047695D02*
X132783194Y-66955992D01*
X132783194Y-66955992D02*
X132859343Y-66867601D01*
X132859343Y-66867601D02*
X132940123Y-66782717D01*
X132940123Y-66782717D02*
X133025007Y-66701937D01*
X133025007Y-66701937D02*
X133113398Y-66625788D01*
X133113398Y-66625788D02*
X133205101Y-66554350D01*
X133205101Y-66554350D02*
X133299923Y-66487702D01*
X133299923Y-66487702D02*
X133397670Y-66425926D01*
X133397670Y-66425926D02*
X133498148Y-66369100D01*
X133498148Y-66369100D02*
X133601164Y-66317306D01*
X133601164Y-66317306D02*
X133706524Y-66270623D01*
X133706524Y-66270623D02*
X133814035Y-66229132D01*
X133814035Y-66229132D02*
X133923502Y-66192913D01*
X133923502Y-66192913D02*
X134034733Y-66162046D01*
X134034733Y-66162046D02*
X134147533Y-66136611D01*
X134147533Y-66136611D02*
X134261709Y-66116689D01*
X134261709Y-66116689D02*
X134377067Y-66102359D01*
X134377067Y-66102359D02*
X134493414Y-66093703D01*
X134493414Y-66093703D02*
X134610557Y-66090800D01*
X132248206Y-88189926D02*
X132248206Y-68453151D01*
X134610557Y-66090800D02*
X134610557Y-66090800D01*
X156017766Y-66782717D02*
X156098545Y-66867601D01*
X156098545Y-66867601D02*
X156174694Y-66955992D01*
X156174694Y-66955992D02*
X156246132Y-67047695D01*
X156246132Y-67047695D02*
X156312780Y-67142517D01*
X156312780Y-67142517D02*
X156374556Y-67240264D01*
X156374556Y-67240264D02*
X156431382Y-67340742D01*
X156431382Y-67340742D02*
X156483176Y-67443758D01*
X156483176Y-67443758D02*
X156529859Y-67549118D01*
X156529859Y-67549118D02*
X156571350Y-67656629D01*
X156571350Y-67656629D02*
X156607569Y-67766096D01*
X156607569Y-67766096D02*
X156638436Y-67877327D01*
X156638436Y-67877327D02*
X156663871Y-67990127D01*
X156663871Y-67990127D02*
X156683793Y-68104303D01*
X156683793Y-68104303D02*
X156698123Y-68219661D01*
X156698123Y-68219661D02*
X156706779Y-68336008D01*
X156706779Y-68336008D02*
X156709683Y-68453151D01*
%TO.C,U7*%
X126322666Y-94081600D02*
X126439808Y-94084503D01*
X126439808Y-94084503D02*
X126556155Y-94093159D01*
X126556155Y-94093159D02*
X126671513Y-94107489D01*
X126671513Y-94107489D02*
X126785689Y-94127411D01*
X126785689Y-94127411D02*
X126898489Y-94152846D01*
X126898489Y-94152846D02*
X127009720Y-94183713D01*
X127009720Y-94183713D02*
X127119187Y-94219932D01*
X127119187Y-94219932D02*
X127226698Y-94261423D01*
X127226698Y-94261423D02*
X127332058Y-94308106D01*
X127332058Y-94308106D02*
X127435074Y-94359900D01*
X127435074Y-94359900D02*
X127535552Y-94416726D01*
X127535552Y-94416726D02*
X127633299Y-94478502D01*
X127633299Y-94478502D02*
X127728121Y-94545150D01*
X127728121Y-94545150D02*
X127819824Y-94616588D01*
X127819824Y-94616588D02*
X127908215Y-94692737D01*
X127908215Y-94692737D02*
X127993100Y-94773517D01*
X128685017Y-96443951D02*
X128685017Y-116180726D01*
X106585891Y-94081600D02*
X126322666Y-94081600D01*
X128685017Y-116180726D02*
X128682113Y-116297868D01*
X128682113Y-116297868D02*
X128673457Y-116414215D01*
X128673457Y-116414215D02*
X128659127Y-116529573D01*
X128659127Y-116529573D02*
X128639205Y-116643749D01*
X128639205Y-116643749D02*
X128613770Y-116756549D01*
X128613770Y-116756549D02*
X128582903Y-116867780D01*
X128582903Y-116867780D02*
X128546684Y-116977247D01*
X128546684Y-116977247D02*
X128505193Y-117084758D01*
X128505193Y-117084758D02*
X128458510Y-117190118D01*
X128458510Y-117190118D02*
X128406716Y-117293134D01*
X128406716Y-117293134D02*
X128349890Y-117393612D01*
X128349890Y-117393612D02*
X128288114Y-117491359D01*
X128288114Y-117491359D02*
X128221466Y-117586181D01*
X128221466Y-117586181D02*
X128150028Y-117677884D01*
X128150028Y-117677884D02*
X128073879Y-117766275D01*
X128073879Y-117766275D02*
X127993100Y-117851160D01*
X127993100Y-117851160D02*
X127908215Y-117931939D01*
X127908215Y-117931939D02*
X127819824Y-118008088D01*
X127819824Y-118008088D02*
X127728121Y-118079526D01*
X127728121Y-118079526D02*
X127633299Y-118146174D01*
X127633299Y-118146174D02*
X127535552Y-118207950D01*
X127535552Y-118207950D02*
X127435074Y-118264776D01*
X127435074Y-118264776D02*
X127332058Y-118316570D01*
X127332058Y-118316570D02*
X127226698Y-118363253D01*
X127226698Y-118363253D02*
X127119187Y-118404744D01*
X127119187Y-118404744D02*
X127009720Y-118440963D01*
X127009720Y-118440963D02*
X126898489Y-118471830D01*
X126898489Y-118471830D02*
X126785689Y-118497265D01*
X126785689Y-118497265D02*
X126671513Y-118517187D01*
X126671513Y-118517187D02*
X126556155Y-118531517D01*
X126556155Y-118531517D02*
X126439808Y-118540173D01*
X126439808Y-118540173D02*
X126322666Y-118543077D01*
X106585891Y-118543077D02*
X106468748Y-118540173D01*
X106468748Y-118540173D02*
X106352401Y-118531517D01*
X106352401Y-118531517D02*
X106237043Y-118517187D01*
X106237043Y-118517187D02*
X106122867Y-118497265D01*
X106122867Y-118497265D02*
X106010067Y-118471830D01*
X106010067Y-118471830D02*
X105898836Y-118440963D01*
X105898836Y-118440963D02*
X105789369Y-118404744D01*
X105789369Y-118404744D02*
X105681858Y-118363253D01*
X105681858Y-118363253D02*
X105576498Y-118316570D01*
X105576498Y-118316570D02*
X105473482Y-118264776D01*
X105473482Y-118264776D02*
X105373004Y-118207950D01*
X105373004Y-118207950D02*
X105275257Y-118146174D01*
X105275257Y-118146174D02*
X105180435Y-118079526D01*
X105180435Y-118079526D02*
X105088732Y-118008088D01*
X105088732Y-118008088D02*
X105000341Y-117931939D01*
X105000341Y-117931939D02*
X104915457Y-117851160D01*
X104915457Y-117851160D02*
X104834677Y-117766275D01*
X104834677Y-117766275D02*
X104758528Y-117677884D01*
X104758528Y-117677884D02*
X104687090Y-117586181D01*
X104687090Y-117586181D02*
X104620442Y-117491359D01*
X104620442Y-117491359D02*
X104558666Y-117393612D01*
X104558666Y-117393612D02*
X104501840Y-117293134D01*
X104501840Y-117293134D02*
X104450046Y-117190118D01*
X104450046Y-117190118D02*
X104403363Y-117084758D01*
X104403363Y-117084758D02*
X104361872Y-116977247D01*
X104361872Y-116977247D02*
X104325653Y-116867780D01*
X104325653Y-116867780D02*
X104294786Y-116756549D01*
X104294786Y-116756549D02*
X104269351Y-116643749D01*
X104269351Y-116643749D02*
X104249429Y-116529573D01*
X104249429Y-116529573D02*
X104235099Y-116414215D01*
X104235099Y-116414215D02*
X104226443Y-116297868D01*
X104226443Y-116297868D02*
X104223540Y-116180726D01*
X126322666Y-118543077D02*
X106585891Y-118543077D01*
X104223540Y-96443951D02*
X104226443Y-96326808D01*
X104226443Y-96326808D02*
X104235099Y-96210461D01*
X104235099Y-96210461D02*
X104249429Y-96095103D01*
X104249429Y-96095103D02*
X104269351Y-95980927D01*
X104269351Y-95980927D02*
X104294786Y-95868127D01*
X104294786Y-95868127D02*
X104325653Y-95756896D01*
X104325653Y-95756896D02*
X104361872Y-95647429D01*
X104361872Y-95647429D02*
X104403363Y-95539918D01*
X104403363Y-95539918D02*
X104450046Y-95434558D01*
X104450046Y-95434558D02*
X104501840Y-95331542D01*
X104501840Y-95331542D02*
X104558666Y-95231064D01*
X104558666Y-95231064D02*
X104620442Y-95133317D01*
X104620442Y-95133317D02*
X104687090Y-95038495D01*
X104687090Y-95038495D02*
X104758528Y-94946792D01*
X104758528Y-94946792D02*
X104834677Y-94858401D01*
X104834677Y-94858401D02*
X104915457Y-94773517D01*
X104915457Y-94773517D02*
X105000341Y-94692737D01*
X105000341Y-94692737D02*
X105088732Y-94616588D01*
X105088732Y-94616588D02*
X105180435Y-94545150D01*
X105180435Y-94545150D02*
X105275257Y-94478502D01*
X105275257Y-94478502D02*
X105373004Y-94416726D01*
X105373004Y-94416726D02*
X105473482Y-94359900D01*
X105473482Y-94359900D02*
X105576498Y-94308106D01*
X105576498Y-94308106D02*
X105681858Y-94261423D01*
X105681858Y-94261423D02*
X105789369Y-94219932D01*
X105789369Y-94219932D02*
X105898836Y-94183713D01*
X105898836Y-94183713D02*
X106010067Y-94152846D01*
X106010067Y-94152846D02*
X106122867Y-94127411D01*
X106122867Y-94127411D02*
X106237043Y-94107489D01*
X106237043Y-94107489D02*
X106352401Y-94093159D01*
X106352401Y-94093159D02*
X106468748Y-94084503D01*
X106468748Y-94084503D02*
X106585891Y-94081600D01*
X104223540Y-116180726D02*
X104223540Y-96443951D01*
X106585891Y-94081600D02*
X106585891Y-94081600D01*
X127993100Y-94773517D02*
X128073879Y-94858401D01*
X128073879Y-94858401D02*
X128150028Y-94946792D01*
X128150028Y-94946792D02*
X128221466Y-95038495D01*
X128221466Y-95038495D02*
X128288114Y-95133317D01*
X128288114Y-95133317D02*
X128349890Y-95231064D01*
X128349890Y-95231064D02*
X128406716Y-95331542D01*
X128406716Y-95331542D02*
X128458510Y-95434558D01*
X128458510Y-95434558D02*
X128505193Y-95539918D01*
X128505193Y-95539918D02*
X128546684Y-95647429D01*
X128546684Y-95647429D02*
X128582903Y-95756896D01*
X128582903Y-95756896D02*
X128613770Y-95868127D01*
X128613770Y-95868127D02*
X128639205Y-95980927D01*
X128639205Y-95980927D02*
X128659127Y-96095103D01*
X128659127Y-96095103D02*
X128673457Y-96210461D01*
X128673457Y-96210461D02*
X128682113Y-96326808D01*
X128682113Y-96326808D02*
X128685017Y-96443951D01*
%TO.C,U6*%
X154347332Y-38100000D02*
X154464474Y-38102903D01*
X154464474Y-38102903D02*
X154580821Y-38111559D01*
X154580821Y-38111559D02*
X154696179Y-38125889D01*
X154696179Y-38125889D02*
X154810355Y-38145811D01*
X154810355Y-38145811D02*
X154923155Y-38171246D01*
X154923155Y-38171246D02*
X155034386Y-38202113D01*
X155034386Y-38202113D02*
X155143853Y-38238332D01*
X155143853Y-38238332D02*
X155251364Y-38279823D01*
X155251364Y-38279823D02*
X155356724Y-38326506D01*
X155356724Y-38326506D02*
X155459740Y-38378300D01*
X155459740Y-38378300D02*
X155560218Y-38435126D01*
X155560218Y-38435126D02*
X155657965Y-38496902D01*
X155657965Y-38496902D02*
X155752787Y-38563550D01*
X155752787Y-38563550D02*
X155844490Y-38634988D01*
X155844490Y-38634988D02*
X155932881Y-38711137D01*
X155932881Y-38711137D02*
X156017766Y-38791917D01*
X156709683Y-40462351D02*
X156709683Y-60199126D01*
X134610557Y-38100000D02*
X154347332Y-38100000D01*
X156709683Y-60199126D02*
X156706779Y-60316268D01*
X156706779Y-60316268D02*
X156698123Y-60432615D01*
X156698123Y-60432615D02*
X156683793Y-60547973D01*
X156683793Y-60547973D02*
X156663871Y-60662149D01*
X156663871Y-60662149D02*
X156638436Y-60774949D01*
X156638436Y-60774949D02*
X156607569Y-60886180D01*
X156607569Y-60886180D02*
X156571350Y-60995647D01*
X156571350Y-60995647D02*
X156529859Y-61103158D01*
X156529859Y-61103158D02*
X156483176Y-61208518D01*
X156483176Y-61208518D02*
X156431382Y-61311534D01*
X156431382Y-61311534D02*
X156374556Y-61412012D01*
X156374556Y-61412012D02*
X156312780Y-61509759D01*
X156312780Y-61509759D02*
X156246132Y-61604581D01*
X156246132Y-61604581D02*
X156174694Y-61696284D01*
X156174694Y-61696284D02*
X156098545Y-61784675D01*
X156098545Y-61784675D02*
X156017766Y-61869560D01*
X156017766Y-61869560D02*
X155932881Y-61950339D01*
X155932881Y-61950339D02*
X155844490Y-62026488D01*
X155844490Y-62026488D02*
X155752787Y-62097926D01*
X155752787Y-62097926D02*
X155657965Y-62164574D01*
X155657965Y-62164574D02*
X155560218Y-62226350D01*
X155560218Y-62226350D02*
X155459740Y-62283176D01*
X155459740Y-62283176D02*
X155356724Y-62334970D01*
X155356724Y-62334970D02*
X155251364Y-62381653D01*
X155251364Y-62381653D02*
X155143853Y-62423144D01*
X155143853Y-62423144D02*
X155034386Y-62459363D01*
X155034386Y-62459363D02*
X154923155Y-62490230D01*
X154923155Y-62490230D02*
X154810355Y-62515665D01*
X154810355Y-62515665D02*
X154696179Y-62535587D01*
X154696179Y-62535587D02*
X154580821Y-62549917D01*
X154580821Y-62549917D02*
X154464474Y-62558573D01*
X154464474Y-62558573D02*
X154347332Y-62561477D01*
X134610557Y-62561477D02*
X134493414Y-62558573D01*
X134493414Y-62558573D02*
X134377067Y-62549917D01*
X134377067Y-62549917D02*
X134261709Y-62535587D01*
X134261709Y-62535587D02*
X134147533Y-62515665D01*
X134147533Y-62515665D02*
X134034733Y-62490230D01*
X134034733Y-62490230D02*
X133923502Y-62459363D01*
X133923502Y-62459363D02*
X133814035Y-62423144D01*
X133814035Y-62423144D02*
X133706524Y-62381653D01*
X133706524Y-62381653D02*
X133601164Y-62334970D01*
X133601164Y-62334970D02*
X133498148Y-62283176D01*
X133498148Y-62283176D02*
X133397670Y-62226350D01*
X133397670Y-62226350D02*
X133299923Y-62164574D01*
X133299923Y-62164574D02*
X133205101Y-62097926D01*
X133205101Y-62097926D02*
X133113398Y-62026488D01*
X133113398Y-62026488D02*
X133025007Y-61950339D01*
X133025007Y-61950339D02*
X132940123Y-61869560D01*
X132940123Y-61869560D02*
X132859343Y-61784675D01*
X132859343Y-61784675D02*
X132783194Y-61696284D01*
X132783194Y-61696284D02*
X132711756Y-61604581D01*
X132711756Y-61604581D02*
X132645108Y-61509759D01*
X132645108Y-61509759D02*
X132583332Y-61412012D01*
X132583332Y-61412012D02*
X132526506Y-61311534D01*
X132526506Y-61311534D02*
X132474712Y-61208518D01*
X132474712Y-61208518D02*
X132428029Y-61103158D01*
X132428029Y-61103158D02*
X132386538Y-60995647D01*
X132386538Y-60995647D02*
X132350319Y-60886180D01*
X132350319Y-60886180D02*
X132319452Y-60774949D01*
X132319452Y-60774949D02*
X132294017Y-60662149D01*
X132294017Y-60662149D02*
X132274095Y-60547973D01*
X132274095Y-60547973D02*
X132259765Y-60432615D01*
X132259765Y-60432615D02*
X132251109Y-60316268D01*
X132251109Y-60316268D02*
X132248206Y-60199126D01*
X154347332Y-62561477D02*
X134610557Y-62561477D01*
X132248206Y-40462351D02*
X132251109Y-40345208D01*
X132251109Y-40345208D02*
X132259765Y-40228861D01*
X132259765Y-40228861D02*
X132274095Y-40113503D01*
X132274095Y-40113503D02*
X132294017Y-39999327D01*
X132294017Y-39999327D02*
X132319452Y-39886527D01*
X132319452Y-39886527D02*
X132350319Y-39775296D01*
X132350319Y-39775296D02*
X132386538Y-39665829D01*
X132386538Y-39665829D02*
X132428029Y-39558318D01*
X132428029Y-39558318D02*
X132474712Y-39452958D01*
X132474712Y-39452958D02*
X132526506Y-39349942D01*
X132526506Y-39349942D02*
X132583332Y-39249464D01*
X132583332Y-39249464D02*
X132645108Y-39151717D01*
X132645108Y-39151717D02*
X132711756Y-39056895D01*
X132711756Y-39056895D02*
X132783194Y-38965192D01*
X132783194Y-38965192D02*
X132859343Y-38876801D01*
X132859343Y-38876801D02*
X132940123Y-38791917D01*
X132940123Y-38791917D02*
X133025007Y-38711137D01*
X133025007Y-38711137D02*
X133113398Y-38634988D01*
X133113398Y-38634988D02*
X133205101Y-38563550D01*
X133205101Y-38563550D02*
X133299923Y-38496902D01*
X133299923Y-38496902D02*
X133397670Y-38435126D01*
X133397670Y-38435126D02*
X133498148Y-38378300D01*
X133498148Y-38378300D02*
X133601164Y-38326506D01*
X133601164Y-38326506D02*
X133706524Y-38279823D01*
X133706524Y-38279823D02*
X133814035Y-38238332D01*
X133814035Y-38238332D02*
X133923502Y-38202113D01*
X133923502Y-38202113D02*
X134034733Y-38171246D01*
X134034733Y-38171246D02*
X134147533Y-38145811D01*
X134147533Y-38145811D02*
X134261709Y-38125889D01*
X134261709Y-38125889D02*
X134377067Y-38111559D01*
X134377067Y-38111559D02*
X134493414Y-38102903D01*
X134493414Y-38102903D02*
X134610557Y-38100000D01*
X132248206Y-60199126D02*
X132248206Y-40462351D01*
X134610557Y-38100000D02*
X134610557Y-38100000D01*
X156017766Y-38791917D02*
X156098545Y-38876801D01*
X156098545Y-38876801D02*
X156174694Y-38965192D01*
X156174694Y-38965192D02*
X156246132Y-39056895D01*
X156246132Y-39056895D02*
X156312780Y-39151717D01*
X156312780Y-39151717D02*
X156374556Y-39249464D01*
X156374556Y-39249464D02*
X156431382Y-39349942D01*
X156431382Y-39349942D02*
X156483176Y-39452958D01*
X156483176Y-39452958D02*
X156529859Y-39558318D01*
X156529859Y-39558318D02*
X156571350Y-39665829D01*
X156571350Y-39665829D02*
X156607569Y-39775296D01*
X156607569Y-39775296D02*
X156638436Y-39886527D01*
X156638436Y-39886527D02*
X156663871Y-39999327D01*
X156663871Y-39999327D02*
X156683793Y-40113503D01*
X156683793Y-40113503D02*
X156698123Y-40228861D01*
X156698123Y-40228861D02*
X156706779Y-40345208D01*
X156706779Y-40345208D02*
X156709683Y-40462351D01*
%TO.C,U5*%
X126322666Y-66090800D02*
X126439808Y-66093703D01*
X126439808Y-66093703D02*
X126556155Y-66102359D01*
X126556155Y-66102359D02*
X126671513Y-66116689D01*
X126671513Y-66116689D02*
X126785689Y-66136611D01*
X126785689Y-66136611D02*
X126898489Y-66162046D01*
X126898489Y-66162046D02*
X127009720Y-66192913D01*
X127009720Y-66192913D02*
X127119187Y-66229132D01*
X127119187Y-66229132D02*
X127226698Y-66270623D01*
X127226698Y-66270623D02*
X127332058Y-66317306D01*
X127332058Y-66317306D02*
X127435074Y-66369100D01*
X127435074Y-66369100D02*
X127535552Y-66425926D01*
X127535552Y-66425926D02*
X127633299Y-66487702D01*
X127633299Y-66487702D02*
X127728121Y-66554350D01*
X127728121Y-66554350D02*
X127819824Y-66625788D01*
X127819824Y-66625788D02*
X127908215Y-66701937D01*
X127908215Y-66701937D02*
X127993100Y-66782717D01*
X128685017Y-68453151D02*
X128685017Y-88189926D01*
X106585891Y-66090800D02*
X126322666Y-66090800D01*
X128685017Y-88189926D02*
X128682113Y-88307068D01*
X128682113Y-88307068D02*
X128673457Y-88423415D01*
X128673457Y-88423415D02*
X128659127Y-88538773D01*
X128659127Y-88538773D02*
X128639205Y-88652949D01*
X128639205Y-88652949D02*
X128613770Y-88765749D01*
X128613770Y-88765749D02*
X128582903Y-88876980D01*
X128582903Y-88876980D02*
X128546684Y-88986447D01*
X128546684Y-88986447D02*
X128505193Y-89093958D01*
X128505193Y-89093958D02*
X128458510Y-89199318D01*
X128458510Y-89199318D02*
X128406716Y-89302334D01*
X128406716Y-89302334D02*
X128349890Y-89402812D01*
X128349890Y-89402812D02*
X128288114Y-89500559D01*
X128288114Y-89500559D02*
X128221466Y-89595381D01*
X128221466Y-89595381D02*
X128150028Y-89687084D01*
X128150028Y-89687084D02*
X128073879Y-89775475D01*
X128073879Y-89775475D02*
X127993100Y-89860360D01*
X127993100Y-89860360D02*
X127908215Y-89941139D01*
X127908215Y-89941139D02*
X127819824Y-90017288D01*
X127819824Y-90017288D02*
X127728121Y-90088726D01*
X127728121Y-90088726D02*
X127633299Y-90155374D01*
X127633299Y-90155374D02*
X127535552Y-90217150D01*
X127535552Y-90217150D02*
X127435074Y-90273976D01*
X127435074Y-90273976D02*
X127332058Y-90325770D01*
X127332058Y-90325770D02*
X127226698Y-90372453D01*
X127226698Y-90372453D02*
X127119187Y-90413944D01*
X127119187Y-90413944D02*
X127009720Y-90450163D01*
X127009720Y-90450163D02*
X126898489Y-90481030D01*
X126898489Y-90481030D02*
X126785689Y-90506465D01*
X126785689Y-90506465D02*
X126671513Y-90526387D01*
X126671513Y-90526387D02*
X126556155Y-90540717D01*
X126556155Y-90540717D02*
X126439808Y-90549373D01*
X126439808Y-90549373D02*
X126322666Y-90552277D01*
X106585891Y-90552277D02*
X106468748Y-90549373D01*
X106468748Y-90549373D02*
X106352401Y-90540717D01*
X106352401Y-90540717D02*
X106237043Y-90526387D01*
X106237043Y-90526387D02*
X106122867Y-90506465D01*
X106122867Y-90506465D02*
X106010067Y-90481030D01*
X106010067Y-90481030D02*
X105898836Y-90450163D01*
X105898836Y-90450163D02*
X105789369Y-90413944D01*
X105789369Y-90413944D02*
X105681858Y-90372453D01*
X105681858Y-90372453D02*
X105576498Y-90325770D01*
X105576498Y-90325770D02*
X105473482Y-90273976D01*
X105473482Y-90273976D02*
X105373004Y-90217150D01*
X105373004Y-90217150D02*
X105275257Y-90155374D01*
X105275257Y-90155374D02*
X105180435Y-90088726D01*
X105180435Y-90088726D02*
X105088732Y-90017288D01*
X105088732Y-90017288D02*
X105000341Y-89941139D01*
X105000341Y-89941139D02*
X104915457Y-89860360D01*
X104915457Y-89860360D02*
X104834677Y-89775475D01*
X104834677Y-89775475D02*
X104758528Y-89687084D01*
X104758528Y-89687084D02*
X104687090Y-89595381D01*
X104687090Y-89595381D02*
X104620442Y-89500559D01*
X104620442Y-89500559D02*
X104558666Y-89402812D01*
X104558666Y-89402812D02*
X104501840Y-89302334D01*
X104501840Y-89302334D02*
X104450046Y-89199318D01*
X104450046Y-89199318D02*
X104403363Y-89093958D01*
X104403363Y-89093958D02*
X104361872Y-88986447D01*
X104361872Y-88986447D02*
X104325653Y-88876980D01*
X104325653Y-88876980D02*
X104294786Y-88765749D01*
X104294786Y-88765749D02*
X104269351Y-88652949D01*
X104269351Y-88652949D02*
X104249429Y-88538773D01*
X104249429Y-88538773D02*
X104235099Y-88423415D01*
X104235099Y-88423415D02*
X104226443Y-88307068D01*
X104226443Y-88307068D02*
X104223540Y-88189926D01*
X126322666Y-90552277D02*
X106585891Y-90552277D01*
X104223540Y-68453151D02*
X104226443Y-68336008D01*
X104226443Y-68336008D02*
X104235099Y-68219661D01*
X104235099Y-68219661D02*
X104249429Y-68104303D01*
X104249429Y-68104303D02*
X104269351Y-67990127D01*
X104269351Y-67990127D02*
X104294786Y-67877327D01*
X104294786Y-67877327D02*
X104325653Y-67766096D01*
X104325653Y-67766096D02*
X104361872Y-67656629D01*
X104361872Y-67656629D02*
X104403363Y-67549118D01*
X104403363Y-67549118D02*
X104450046Y-67443758D01*
X104450046Y-67443758D02*
X104501840Y-67340742D01*
X104501840Y-67340742D02*
X104558666Y-67240264D01*
X104558666Y-67240264D02*
X104620442Y-67142517D01*
X104620442Y-67142517D02*
X104687090Y-67047695D01*
X104687090Y-67047695D02*
X104758528Y-66955992D01*
X104758528Y-66955992D02*
X104834677Y-66867601D01*
X104834677Y-66867601D02*
X104915457Y-66782717D01*
X104915457Y-66782717D02*
X105000341Y-66701937D01*
X105000341Y-66701937D02*
X105088732Y-66625788D01*
X105088732Y-66625788D02*
X105180435Y-66554350D01*
X105180435Y-66554350D02*
X105275257Y-66487702D01*
X105275257Y-66487702D02*
X105373004Y-66425926D01*
X105373004Y-66425926D02*
X105473482Y-66369100D01*
X105473482Y-66369100D02*
X105576498Y-66317306D01*
X105576498Y-66317306D02*
X105681858Y-66270623D01*
X105681858Y-66270623D02*
X105789369Y-66229132D01*
X105789369Y-66229132D02*
X105898836Y-66192913D01*
X105898836Y-66192913D02*
X106010067Y-66162046D01*
X106010067Y-66162046D02*
X106122867Y-66136611D01*
X106122867Y-66136611D02*
X106237043Y-66116689D01*
X106237043Y-66116689D02*
X106352401Y-66102359D01*
X106352401Y-66102359D02*
X106468748Y-66093703D01*
X106468748Y-66093703D02*
X106585891Y-66090800D01*
X104223540Y-88189926D02*
X104223540Y-68453151D01*
X106585891Y-66090800D02*
X106585891Y-66090800D01*
X127993100Y-66782717D02*
X128073879Y-66867601D01*
X128073879Y-66867601D02*
X128150028Y-66955992D01*
X128150028Y-66955992D02*
X128221466Y-67047695D01*
X128221466Y-67047695D02*
X128288114Y-67142517D01*
X128288114Y-67142517D02*
X128349890Y-67240264D01*
X128349890Y-67240264D02*
X128406716Y-67340742D01*
X128406716Y-67340742D02*
X128458510Y-67443758D01*
X128458510Y-67443758D02*
X128505193Y-67549118D01*
X128505193Y-67549118D02*
X128546684Y-67656629D01*
X128546684Y-67656629D02*
X128582903Y-67766096D01*
X128582903Y-67766096D02*
X128613770Y-67877327D01*
X128613770Y-67877327D02*
X128639205Y-67990127D01*
X128639205Y-67990127D02*
X128659127Y-68104303D01*
X128659127Y-68104303D02*
X128673457Y-68219661D01*
X128673457Y-68219661D02*
X128682113Y-68336008D01*
X128682113Y-68336008D02*
X128685017Y-68453151D01*
%TO.C,U4*%
X98490526Y-94081600D02*
X98607668Y-94084503D01*
X98607668Y-94084503D02*
X98724015Y-94093159D01*
X98724015Y-94093159D02*
X98839373Y-94107489D01*
X98839373Y-94107489D02*
X98953549Y-94127411D01*
X98953549Y-94127411D02*
X99066349Y-94152846D01*
X99066349Y-94152846D02*
X99177580Y-94183713D01*
X99177580Y-94183713D02*
X99287047Y-94219932D01*
X99287047Y-94219932D02*
X99394558Y-94261423D01*
X99394558Y-94261423D02*
X99499918Y-94308106D01*
X99499918Y-94308106D02*
X99602934Y-94359900D01*
X99602934Y-94359900D02*
X99703412Y-94416726D01*
X99703412Y-94416726D02*
X99801159Y-94478502D01*
X99801159Y-94478502D02*
X99895981Y-94545150D01*
X99895981Y-94545150D02*
X99987684Y-94616588D01*
X99987684Y-94616588D02*
X100076075Y-94692737D01*
X100076075Y-94692737D02*
X100160960Y-94773517D01*
X100852877Y-96443951D02*
X100852877Y-116180726D01*
X78753751Y-94081600D02*
X98490526Y-94081600D01*
X100852877Y-116180726D02*
X100849973Y-116297868D01*
X100849973Y-116297868D02*
X100841317Y-116414215D01*
X100841317Y-116414215D02*
X100826987Y-116529573D01*
X100826987Y-116529573D02*
X100807065Y-116643749D01*
X100807065Y-116643749D02*
X100781630Y-116756549D01*
X100781630Y-116756549D02*
X100750763Y-116867780D01*
X100750763Y-116867780D02*
X100714544Y-116977247D01*
X100714544Y-116977247D02*
X100673053Y-117084758D01*
X100673053Y-117084758D02*
X100626370Y-117190118D01*
X100626370Y-117190118D02*
X100574576Y-117293134D01*
X100574576Y-117293134D02*
X100517750Y-117393612D01*
X100517750Y-117393612D02*
X100455974Y-117491359D01*
X100455974Y-117491359D02*
X100389326Y-117586181D01*
X100389326Y-117586181D02*
X100317888Y-117677884D01*
X100317888Y-117677884D02*
X100241739Y-117766275D01*
X100241739Y-117766275D02*
X100160960Y-117851160D01*
X100160960Y-117851160D02*
X100076075Y-117931939D01*
X100076075Y-117931939D02*
X99987684Y-118008088D01*
X99987684Y-118008088D02*
X99895981Y-118079526D01*
X99895981Y-118079526D02*
X99801159Y-118146174D01*
X99801159Y-118146174D02*
X99703412Y-118207950D01*
X99703412Y-118207950D02*
X99602934Y-118264776D01*
X99602934Y-118264776D02*
X99499918Y-118316570D01*
X99499918Y-118316570D02*
X99394558Y-118363253D01*
X99394558Y-118363253D02*
X99287047Y-118404744D01*
X99287047Y-118404744D02*
X99177580Y-118440963D01*
X99177580Y-118440963D02*
X99066349Y-118471830D01*
X99066349Y-118471830D02*
X98953549Y-118497265D01*
X98953549Y-118497265D02*
X98839373Y-118517187D01*
X98839373Y-118517187D02*
X98724015Y-118531517D01*
X98724015Y-118531517D02*
X98607668Y-118540173D01*
X98607668Y-118540173D02*
X98490526Y-118543077D01*
X78753751Y-118543077D02*
X78636608Y-118540173D01*
X78636608Y-118540173D02*
X78520261Y-118531517D01*
X78520261Y-118531517D02*
X78404903Y-118517187D01*
X78404903Y-118517187D02*
X78290727Y-118497265D01*
X78290727Y-118497265D02*
X78177927Y-118471830D01*
X78177927Y-118471830D02*
X78066696Y-118440963D01*
X78066696Y-118440963D02*
X77957229Y-118404744D01*
X77957229Y-118404744D02*
X77849718Y-118363253D01*
X77849718Y-118363253D02*
X77744358Y-118316570D01*
X77744358Y-118316570D02*
X77641342Y-118264776D01*
X77641342Y-118264776D02*
X77540864Y-118207950D01*
X77540864Y-118207950D02*
X77443117Y-118146174D01*
X77443117Y-118146174D02*
X77348295Y-118079526D01*
X77348295Y-118079526D02*
X77256592Y-118008088D01*
X77256592Y-118008088D02*
X77168201Y-117931939D01*
X77168201Y-117931939D02*
X77083317Y-117851160D01*
X77083317Y-117851160D02*
X77002537Y-117766275D01*
X77002537Y-117766275D02*
X76926388Y-117677884D01*
X76926388Y-117677884D02*
X76854950Y-117586181D01*
X76854950Y-117586181D02*
X76788302Y-117491359D01*
X76788302Y-117491359D02*
X76726526Y-117393612D01*
X76726526Y-117393612D02*
X76669700Y-117293134D01*
X76669700Y-117293134D02*
X76617906Y-117190118D01*
X76617906Y-117190118D02*
X76571223Y-117084758D01*
X76571223Y-117084758D02*
X76529732Y-116977247D01*
X76529732Y-116977247D02*
X76493513Y-116867780D01*
X76493513Y-116867780D02*
X76462646Y-116756549D01*
X76462646Y-116756549D02*
X76437211Y-116643749D01*
X76437211Y-116643749D02*
X76417289Y-116529573D01*
X76417289Y-116529573D02*
X76402959Y-116414215D01*
X76402959Y-116414215D02*
X76394303Y-116297868D01*
X76394303Y-116297868D02*
X76391400Y-116180726D01*
X98490526Y-118543077D02*
X78753751Y-118543077D01*
X76391400Y-96443951D02*
X76394303Y-96326808D01*
X76394303Y-96326808D02*
X76402959Y-96210461D01*
X76402959Y-96210461D02*
X76417289Y-96095103D01*
X76417289Y-96095103D02*
X76437211Y-95980927D01*
X76437211Y-95980927D02*
X76462646Y-95868127D01*
X76462646Y-95868127D02*
X76493513Y-95756896D01*
X76493513Y-95756896D02*
X76529732Y-95647429D01*
X76529732Y-95647429D02*
X76571223Y-95539918D01*
X76571223Y-95539918D02*
X76617906Y-95434558D01*
X76617906Y-95434558D02*
X76669700Y-95331542D01*
X76669700Y-95331542D02*
X76726526Y-95231064D01*
X76726526Y-95231064D02*
X76788302Y-95133317D01*
X76788302Y-95133317D02*
X76854950Y-95038495D01*
X76854950Y-95038495D02*
X76926388Y-94946792D01*
X76926388Y-94946792D02*
X77002537Y-94858401D01*
X77002537Y-94858401D02*
X77083317Y-94773517D01*
X77083317Y-94773517D02*
X77168201Y-94692737D01*
X77168201Y-94692737D02*
X77256592Y-94616588D01*
X77256592Y-94616588D02*
X77348295Y-94545150D01*
X77348295Y-94545150D02*
X77443117Y-94478502D01*
X77443117Y-94478502D02*
X77540864Y-94416726D01*
X77540864Y-94416726D02*
X77641342Y-94359900D01*
X77641342Y-94359900D02*
X77744358Y-94308106D01*
X77744358Y-94308106D02*
X77849718Y-94261423D01*
X77849718Y-94261423D02*
X77957229Y-94219932D01*
X77957229Y-94219932D02*
X78066696Y-94183713D01*
X78066696Y-94183713D02*
X78177927Y-94152846D01*
X78177927Y-94152846D02*
X78290727Y-94127411D01*
X78290727Y-94127411D02*
X78404903Y-94107489D01*
X78404903Y-94107489D02*
X78520261Y-94093159D01*
X78520261Y-94093159D02*
X78636608Y-94084503D01*
X78636608Y-94084503D02*
X78753751Y-94081600D01*
X76391400Y-116180726D02*
X76391400Y-96443951D01*
X78753751Y-94081600D02*
X78753751Y-94081600D01*
X100160960Y-94773517D02*
X100241739Y-94858401D01*
X100241739Y-94858401D02*
X100317888Y-94946792D01*
X100317888Y-94946792D02*
X100389326Y-95038495D01*
X100389326Y-95038495D02*
X100455974Y-95133317D01*
X100455974Y-95133317D02*
X100517750Y-95231064D01*
X100517750Y-95231064D02*
X100574576Y-95331542D01*
X100574576Y-95331542D02*
X100626370Y-95434558D01*
X100626370Y-95434558D02*
X100673053Y-95539918D01*
X100673053Y-95539918D02*
X100714544Y-95647429D01*
X100714544Y-95647429D02*
X100750763Y-95756896D01*
X100750763Y-95756896D02*
X100781630Y-95868127D01*
X100781630Y-95868127D02*
X100807065Y-95980927D01*
X100807065Y-95980927D02*
X100826987Y-96095103D01*
X100826987Y-96095103D02*
X100841317Y-96210461D01*
X100841317Y-96210461D02*
X100849973Y-96326808D01*
X100849973Y-96326808D02*
X100852877Y-96443951D01*
%TO.C,U3*%
X126322666Y-38100000D02*
X126439808Y-38102903D01*
X126439808Y-38102903D02*
X126556155Y-38111559D01*
X126556155Y-38111559D02*
X126671513Y-38125889D01*
X126671513Y-38125889D02*
X126785689Y-38145811D01*
X126785689Y-38145811D02*
X126898489Y-38171246D01*
X126898489Y-38171246D02*
X127009720Y-38202113D01*
X127009720Y-38202113D02*
X127119187Y-38238332D01*
X127119187Y-38238332D02*
X127226698Y-38279823D01*
X127226698Y-38279823D02*
X127332058Y-38326506D01*
X127332058Y-38326506D02*
X127435074Y-38378300D01*
X127435074Y-38378300D02*
X127535552Y-38435126D01*
X127535552Y-38435126D02*
X127633299Y-38496902D01*
X127633299Y-38496902D02*
X127728121Y-38563550D01*
X127728121Y-38563550D02*
X127819824Y-38634988D01*
X127819824Y-38634988D02*
X127908215Y-38711137D01*
X127908215Y-38711137D02*
X127993100Y-38791917D01*
X128685017Y-40462351D02*
X128685017Y-60199126D01*
X106585891Y-38100000D02*
X126322666Y-38100000D01*
X128685017Y-60199126D02*
X128682113Y-60316268D01*
X128682113Y-60316268D02*
X128673457Y-60432615D01*
X128673457Y-60432615D02*
X128659127Y-60547973D01*
X128659127Y-60547973D02*
X128639205Y-60662149D01*
X128639205Y-60662149D02*
X128613770Y-60774949D01*
X128613770Y-60774949D02*
X128582903Y-60886180D01*
X128582903Y-60886180D02*
X128546684Y-60995647D01*
X128546684Y-60995647D02*
X128505193Y-61103158D01*
X128505193Y-61103158D02*
X128458510Y-61208518D01*
X128458510Y-61208518D02*
X128406716Y-61311534D01*
X128406716Y-61311534D02*
X128349890Y-61412012D01*
X128349890Y-61412012D02*
X128288114Y-61509759D01*
X128288114Y-61509759D02*
X128221466Y-61604581D01*
X128221466Y-61604581D02*
X128150028Y-61696284D01*
X128150028Y-61696284D02*
X128073879Y-61784675D01*
X128073879Y-61784675D02*
X127993100Y-61869560D01*
X127993100Y-61869560D02*
X127908215Y-61950339D01*
X127908215Y-61950339D02*
X127819824Y-62026488D01*
X127819824Y-62026488D02*
X127728121Y-62097926D01*
X127728121Y-62097926D02*
X127633299Y-62164574D01*
X127633299Y-62164574D02*
X127535552Y-62226350D01*
X127535552Y-62226350D02*
X127435074Y-62283176D01*
X127435074Y-62283176D02*
X127332058Y-62334970D01*
X127332058Y-62334970D02*
X127226698Y-62381653D01*
X127226698Y-62381653D02*
X127119187Y-62423144D01*
X127119187Y-62423144D02*
X127009720Y-62459363D01*
X127009720Y-62459363D02*
X126898489Y-62490230D01*
X126898489Y-62490230D02*
X126785689Y-62515665D01*
X126785689Y-62515665D02*
X126671513Y-62535587D01*
X126671513Y-62535587D02*
X126556155Y-62549917D01*
X126556155Y-62549917D02*
X126439808Y-62558573D01*
X126439808Y-62558573D02*
X126322666Y-62561477D01*
X106585891Y-62561477D02*
X106468748Y-62558573D01*
X106468748Y-62558573D02*
X106352401Y-62549917D01*
X106352401Y-62549917D02*
X106237043Y-62535587D01*
X106237043Y-62535587D02*
X106122867Y-62515665D01*
X106122867Y-62515665D02*
X106010067Y-62490230D01*
X106010067Y-62490230D02*
X105898836Y-62459363D01*
X105898836Y-62459363D02*
X105789369Y-62423144D01*
X105789369Y-62423144D02*
X105681858Y-62381653D01*
X105681858Y-62381653D02*
X105576498Y-62334970D01*
X105576498Y-62334970D02*
X105473482Y-62283176D01*
X105473482Y-62283176D02*
X105373004Y-62226350D01*
X105373004Y-62226350D02*
X105275257Y-62164574D01*
X105275257Y-62164574D02*
X105180435Y-62097926D01*
X105180435Y-62097926D02*
X105088732Y-62026488D01*
X105088732Y-62026488D02*
X105000341Y-61950339D01*
X105000341Y-61950339D02*
X104915457Y-61869560D01*
X104915457Y-61869560D02*
X104834677Y-61784675D01*
X104834677Y-61784675D02*
X104758528Y-61696284D01*
X104758528Y-61696284D02*
X104687090Y-61604581D01*
X104687090Y-61604581D02*
X104620442Y-61509759D01*
X104620442Y-61509759D02*
X104558666Y-61412012D01*
X104558666Y-61412012D02*
X104501840Y-61311534D01*
X104501840Y-61311534D02*
X104450046Y-61208518D01*
X104450046Y-61208518D02*
X104403363Y-61103158D01*
X104403363Y-61103158D02*
X104361872Y-60995647D01*
X104361872Y-60995647D02*
X104325653Y-60886180D01*
X104325653Y-60886180D02*
X104294786Y-60774949D01*
X104294786Y-60774949D02*
X104269351Y-60662149D01*
X104269351Y-60662149D02*
X104249429Y-60547973D01*
X104249429Y-60547973D02*
X104235099Y-60432615D01*
X104235099Y-60432615D02*
X104226443Y-60316268D01*
X104226443Y-60316268D02*
X104223540Y-60199126D01*
X126322666Y-62561477D02*
X106585891Y-62561477D01*
X104223540Y-40462351D02*
X104226443Y-40345208D01*
X104226443Y-40345208D02*
X104235099Y-40228861D01*
X104235099Y-40228861D02*
X104249429Y-40113503D01*
X104249429Y-40113503D02*
X104269351Y-39999327D01*
X104269351Y-39999327D02*
X104294786Y-39886527D01*
X104294786Y-39886527D02*
X104325653Y-39775296D01*
X104325653Y-39775296D02*
X104361872Y-39665829D01*
X104361872Y-39665829D02*
X104403363Y-39558318D01*
X104403363Y-39558318D02*
X104450046Y-39452958D01*
X104450046Y-39452958D02*
X104501840Y-39349942D01*
X104501840Y-39349942D02*
X104558666Y-39249464D01*
X104558666Y-39249464D02*
X104620442Y-39151717D01*
X104620442Y-39151717D02*
X104687090Y-39056895D01*
X104687090Y-39056895D02*
X104758528Y-38965192D01*
X104758528Y-38965192D02*
X104834677Y-38876801D01*
X104834677Y-38876801D02*
X104915457Y-38791917D01*
X104915457Y-38791917D02*
X105000341Y-38711137D01*
X105000341Y-38711137D02*
X105088732Y-38634988D01*
X105088732Y-38634988D02*
X105180435Y-38563550D01*
X105180435Y-38563550D02*
X105275257Y-38496902D01*
X105275257Y-38496902D02*
X105373004Y-38435126D01*
X105373004Y-38435126D02*
X105473482Y-38378300D01*
X105473482Y-38378300D02*
X105576498Y-38326506D01*
X105576498Y-38326506D02*
X105681858Y-38279823D01*
X105681858Y-38279823D02*
X105789369Y-38238332D01*
X105789369Y-38238332D02*
X105898836Y-38202113D01*
X105898836Y-38202113D02*
X106010067Y-38171246D01*
X106010067Y-38171246D02*
X106122867Y-38145811D01*
X106122867Y-38145811D02*
X106237043Y-38125889D01*
X106237043Y-38125889D02*
X106352401Y-38111559D01*
X106352401Y-38111559D02*
X106468748Y-38102903D01*
X106468748Y-38102903D02*
X106585891Y-38100000D01*
X104223540Y-60199126D02*
X104223540Y-40462351D01*
X106585891Y-38100000D02*
X106585891Y-38100000D01*
X127993100Y-38791917D02*
X128073879Y-38876801D01*
X128073879Y-38876801D02*
X128150028Y-38965192D01*
X128150028Y-38965192D02*
X128221466Y-39056895D01*
X128221466Y-39056895D02*
X128288114Y-39151717D01*
X128288114Y-39151717D02*
X128349890Y-39249464D01*
X128349890Y-39249464D02*
X128406716Y-39349942D01*
X128406716Y-39349942D02*
X128458510Y-39452958D01*
X128458510Y-39452958D02*
X128505193Y-39558318D01*
X128505193Y-39558318D02*
X128546684Y-39665829D01*
X128546684Y-39665829D02*
X128582903Y-39775296D01*
X128582903Y-39775296D02*
X128613770Y-39886527D01*
X128613770Y-39886527D02*
X128639205Y-39999327D01*
X128639205Y-39999327D02*
X128659127Y-40113503D01*
X128659127Y-40113503D02*
X128673457Y-40228861D01*
X128673457Y-40228861D02*
X128682113Y-40345208D01*
X128682113Y-40345208D02*
X128685017Y-40462351D01*
%TO.C,U2*%
X98490526Y-66090800D02*
X98607668Y-66093703D01*
X98607668Y-66093703D02*
X98724015Y-66102359D01*
X98724015Y-66102359D02*
X98839373Y-66116689D01*
X98839373Y-66116689D02*
X98953549Y-66136611D01*
X98953549Y-66136611D02*
X99066349Y-66162046D01*
X99066349Y-66162046D02*
X99177580Y-66192913D01*
X99177580Y-66192913D02*
X99287047Y-66229132D01*
X99287047Y-66229132D02*
X99394558Y-66270623D01*
X99394558Y-66270623D02*
X99499918Y-66317306D01*
X99499918Y-66317306D02*
X99602934Y-66369100D01*
X99602934Y-66369100D02*
X99703412Y-66425926D01*
X99703412Y-66425926D02*
X99801159Y-66487702D01*
X99801159Y-66487702D02*
X99895981Y-66554350D01*
X99895981Y-66554350D02*
X99987684Y-66625788D01*
X99987684Y-66625788D02*
X100076075Y-66701937D01*
X100076075Y-66701937D02*
X100160960Y-66782717D01*
X100852877Y-68453151D02*
X100852877Y-88189926D01*
X78753751Y-66090800D02*
X98490526Y-66090800D01*
X100852877Y-88189926D02*
X100849973Y-88307068D01*
X100849973Y-88307068D02*
X100841317Y-88423415D01*
X100841317Y-88423415D02*
X100826987Y-88538773D01*
X100826987Y-88538773D02*
X100807065Y-88652949D01*
X100807065Y-88652949D02*
X100781630Y-88765749D01*
X100781630Y-88765749D02*
X100750763Y-88876980D01*
X100750763Y-88876980D02*
X100714544Y-88986447D01*
X100714544Y-88986447D02*
X100673053Y-89093958D01*
X100673053Y-89093958D02*
X100626370Y-89199318D01*
X100626370Y-89199318D02*
X100574576Y-89302334D01*
X100574576Y-89302334D02*
X100517750Y-89402812D01*
X100517750Y-89402812D02*
X100455974Y-89500559D01*
X100455974Y-89500559D02*
X100389326Y-89595381D01*
X100389326Y-89595381D02*
X100317888Y-89687084D01*
X100317888Y-89687084D02*
X100241739Y-89775475D01*
X100241739Y-89775475D02*
X100160960Y-89860360D01*
X100160960Y-89860360D02*
X100076075Y-89941139D01*
X100076075Y-89941139D02*
X99987684Y-90017288D01*
X99987684Y-90017288D02*
X99895981Y-90088726D01*
X99895981Y-90088726D02*
X99801159Y-90155374D01*
X99801159Y-90155374D02*
X99703412Y-90217150D01*
X99703412Y-90217150D02*
X99602934Y-90273976D01*
X99602934Y-90273976D02*
X99499918Y-90325770D01*
X99499918Y-90325770D02*
X99394558Y-90372453D01*
X99394558Y-90372453D02*
X99287047Y-90413944D01*
X99287047Y-90413944D02*
X99177580Y-90450163D01*
X99177580Y-90450163D02*
X99066349Y-90481030D01*
X99066349Y-90481030D02*
X98953549Y-90506465D01*
X98953549Y-90506465D02*
X98839373Y-90526387D01*
X98839373Y-90526387D02*
X98724015Y-90540717D01*
X98724015Y-90540717D02*
X98607668Y-90549373D01*
X98607668Y-90549373D02*
X98490526Y-90552277D01*
X78753751Y-90552277D02*
X78636608Y-90549373D01*
X78636608Y-90549373D02*
X78520261Y-90540717D01*
X78520261Y-90540717D02*
X78404903Y-90526387D01*
X78404903Y-90526387D02*
X78290727Y-90506465D01*
X78290727Y-90506465D02*
X78177927Y-90481030D01*
X78177927Y-90481030D02*
X78066696Y-90450163D01*
X78066696Y-90450163D02*
X77957229Y-90413944D01*
X77957229Y-90413944D02*
X77849718Y-90372453D01*
X77849718Y-90372453D02*
X77744358Y-90325770D01*
X77744358Y-90325770D02*
X77641342Y-90273976D01*
X77641342Y-90273976D02*
X77540864Y-90217150D01*
X77540864Y-90217150D02*
X77443117Y-90155374D01*
X77443117Y-90155374D02*
X77348295Y-90088726D01*
X77348295Y-90088726D02*
X77256592Y-90017288D01*
X77256592Y-90017288D02*
X77168201Y-89941139D01*
X77168201Y-89941139D02*
X77083317Y-89860360D01*
X77083317Y-89860360D02*
X77002537Y-89775475D01*
X77002537Y-89775475D02*
X76926388Y-89687084D01*
X76926388Y-89687084D02*
X76854950Y-89595381D01*
X76854950Y-89595381D02*
X76788302Y-89500559D01*
X76788302Y-89500559D02*
X76726526Y-89402812D01*
X76726526Y-89402812D02*
X76669700Y-89302334D01*
X76669700Y-89302334D02*
X76617906Y-89199318D01*
X76617906Y-89199318D02*
X76571223Y-89093958D01*
X76571223Y-89093958D02*
X76529732Y-88986447D01*
X76529732Y-88986447D02*
X76493513Y-88876980D01*
X76493513Y-88876980D02*
X76462646Y-88765749D01*
X76462646Y-88765749D02*
X76437211Y-88652949D01*
X76437211Y-88652949D02*
X76417289Y-88538773D01*
X76417289Y-88538773D02*
X76402959Y-88423415D01*
X76402959Y-88423415D02*
X76394303Y-88307068D01*
X76394303Y-88307068D02*
X76391400Y-88189926D01*
X98490526Y-90552277D02*
X78753751Y-90552277D01*
X76391400Y-68453151D02*
X76394303Y-68336008D01*
X76394303Y-68336008D02*
X76402959Y-68219661D01*
X76402959Y-68219661D02*
X76417289Y-68104303D01*
X76417289Y-68104303D02*
X76437211Y-67990127D01*
X76437211Y-67990127D02*
X76462646Y-67877327D01*
X76462646Y-67877327D02*
X76493513Y-67766096D01*
X76493513Y-67766096D02*
X76529732Y-67656629D01*
X76529732Y-67656629D02*
X76571223Y-67549118D01*
X76571223Y-67549118D02*
X76617906Y-67443758D01*
X76617906Y-67443758D02*
X76669700Y-67340742D01*
X76669700Y-67340742D02*
X76726526Y-67240264D01*
X76726526Y-67240264D02*
X76788302Y-67142517D01*
X76788302Y-67142517D02*
X76854950Y-67047695D01*
X76854950Y-67047695D02*
X76926388Y-66955992D01*
X76926388Y-66955992D02*
X77002537Y-66867601D01*
X77002537Y-66867601D02*
X77083317Y-66782717D01*
X77083317Y-66782717D02*
X77168201Y-66701937D01*
X77168201Y-66701937D02*
X77256592Y-66625788D01*
X77256592Y-66625788D02*
X77348295Y-66554350D01*
X77348295Y-66554350D02*
X77443117Y-66487702D01*
X77443117Y-66487702D02*
X77540864Y-66425926D01*
X77540864Y-66425926D02*
X77641342Y-66369100D01*
X77641342Y-66369100D02*
X77744358Y-66317306D01*
X77744358Y-66317306D02*
X77849718Y-66270623D01*
X77849718Y-66270623D02*
X77957229Y-66229132D01*
X77957229Y-66229132D02*
X78066696Y-66192913D01*
X78066696Y-66192913D02*
X78177927Y-66162046D01*
X78177927Y-66162046D02*
X78290727Y-66136611D01*
X78290727Y-66136611D02*
X78404903Y-66116689D01*
X78404903Y-66116689D02*
X78520261Y-66102359D01*
X78520261Y-66102359D02*
X78636608Y-66093703D01*
X78636608Y-66093703D02*
X78753751Y-66090800D01*
X76391400Y-88189926D02*
X76391400Y-68453151D01*
X78753751Y-66090800D02*
X78753751Y-66090800D01*
X100160960Y-66782717D02*
X100241739Y-66867601D01*
X100241739Y-66867601D02*
X100317888Y-66955992D01*
X100317888Y-66955992D02*
X100389326Y-67047695D01*
X100389326Y-67047695D02*
X100455974Y-67142517D01*
X100455974Y-67142517D02*
X100517750Y-67240264D01*
X100517750Y-67240264D02*
X100574576Y-67340742D01*
X100574576Y-67340742D02*
X100626370Y-67443758D01*
X100626370Y-67443758D02*
X100673053Y-67549118D01*
X100673053Y-67549118D02*
X100714544Y-67656629D01*
X100714544Y-67656629D02*
X100750763Y-67766096D01*
X100750763Y-67766096D02*
X100781630Y-67877327D01*
X100781630Y-67877327D02*
X100807065Y-67990127D01*
X100807065Y-67990127D02*
X100826987Y-68104303D01*
X100826987Y-68104303D02*
X100841317Y-68219661D01*
X100841317Y-68219661D02*
X100849973Y-68336008D01*
X100849973Y-68336008D02*
X100852877Y-68453151D01*
%TO.C,U1*%
X98490526Y-38100000D02*
X98607668Y-38102903D01*
X98607668Y-38102903D02*
X98724015Y-38111559D01*
X98724015Y-38111559D02*
X98839373Y-38125889D01*
X98839373Y-38125889D02*
X98953549Y-38145811D01*
X98953549Y-38145811D02*
X99066349Y-38171246D01*
X99066349Y-38171246D02*
X99177580Y-38202113D01*
X99177580Y-38202113D02*
X99287047Y-38238332D01*
X99287047Y-38238332D02*
X99394558Y-38279823D01*
X99394558Y-38279823D02*
X99499918Y-38326506D01*
X99499918Y-38326506D02*
X99602934Y-38378300D01*
X99602934Y-38378300D02*
X99703412Y-38435126D01*
X99703412Y-38435126D02*
X99801159Y-38496902D01*
X99801159Y-38496902D02*
X99895981Y-38563550D01*
X99895981Y-38563550D02*
X99987684Y-38634988D01*
X99987684Y-38634988D02*
X100076075Y-38711137D01*
X100076075Y-38711137D02*
X100160960Y-38791917D01*
X100852877Y-40462351D02*
X100852877Y-60199126D01*
X78753751Y-38100000D02*
X98490526Y-38100000D01*
X100852877Y-60199126D02*
X100849973Y-60316268D01*
X100849973Y-60316268D02*
X100841317Y-60432615D01*
X100841317Y-60432615D02*
X100826987Y-60547973D01*
X100826987Y-60547973D02*
X100807065Y-60662149D01*
X100807065Y-60662149D02*
X100781630Y-60774949D01*
X100781630Y-60774949D02*
X100750763Y-60886180D01*
X100750763Y-60886180D02*
X100714544Y-60995647D01*
X100714544Y-60995647D02*
X100673053Y-61103158D01*
X100673053Y-61103158D02*
X100626370Y-61208518D01*
X100626370Y-61208518D02*
X100574576Y-61311534D01*
X100574576Y-61311534D02*
X100517750Y-61412012D01*
X100517750Y-61412012D02*
X100455974Y-61509759D01*
X100455974Y-61509759D02*
X100389326Y-61604581D01*
X100389326Y-61604581D02*
X100317888Y-61696284D01*
X100317888Y-61696284D02*
X100241739Y-61784675D01*
X100241739Y-61784675D02*
X100160960Y-61869560D01*
X100160960Y-61869560D02*
X100076075Y-61950339D01*
X100076075Y-61950339D02*
X99987684Y-62026488D01*
X99987684Y-62026488D02*
X99895981Y-62097926D01*
X99895981Y-62097926D02*
X99801159Y-62164574D01*
X99801159Y-62164574D02*
X99703412Y-62226350D01*
X99703412Y-62226350D02*
X99602934Y-62283176D01*
X99602934Y-62283176D02*
X99499918Y-62334970D01*
X99499918Y-62334970D02*
X99394558Y-62381653D01*
X99394558Y-62381653D02*
X99287047Y-62423144D01*
X99287047Y-62423144D02*
X99177580Y-62459363D01*
X99177580Y-62459363D02*
X99066349Y-62490230D01*
X99066349Y-62490230D02*
X98953549Y-62515665D01*
X98953549Y-62515665D02*
X98839373Y-62535587D01*
X98839373Y-62535587D02*
X98724015Y-62549917D01*
X98724015Y-62549917D02*
X98607668Y-62558573D01*
X98607668Y-62558573D02*
X98490526Y-62561477D01*
X78753751Y-62561477D02*
X78636608Y-62558573D01*
X78636608Y-62558573D02*
X78520261Y-62549917D01*
X78520261Y-62549917D02*
X78404903Y-62535587D01*
X78404903Y-62535587D02*
X78290727Y-62515665D01*
X78290727Y-62515665D02*
X78177927Y-62490230D01*
X78177927Y-62490230D02*
X78066696Y-62459363D01*
X78066696Y-62459363D02*
X77957229Y-62423144D01*
X77957229Y-62423144D02*
X77849718Y-62381653D01*
X77849718Y-62381653D02*
X77744358Y-62334970D01*
X77744358Y-62334970D02*
X77641342Y-62283176D01*
X77641342Y-62283176D02*
X77540864Y-62226350D01*
X77540864Y-62226350D02*
X77443117Y-62164574D01*
X77443117Y-62164574D02*
X77348295Y-62097926D01*
X77348295Y-62097926D02*
X77256592Y-62026488D01*
X77256592Y-62026488D02*
X77168201Y-61950339D01*
X77168201Y-61950339D02*
X77083317Y-61869560D01*
X77083317Y-61869560D02*
X77002537Y-61784675D01*
X77002537Y-61784675D02*
X76926388Y-61696284D01*
X76926388Y-61696284D02*
X76854950Y-61604581D01*
X76854950Y-61604581D02*
X76788302Y-61509759D01*
X76788302Y-61509759D02*
X76726526Y-61412012D01*
X76726526Y-61412012D02*
X76669700Y-61311534D01*
X76669700Y-61311534D02*
X76617906Y-61208518D01*
X76617906Y-61208518D02*
X76571223Y-61103158D01*
X76571223Y-61103158D02*
X76529732Y-60995647D01*
X76529732Y-60995647D02*
X76493513Y-60886180D01*
X76493513Y-60886180D02*
X76462646Y-60774949D01*
X76462646Y-60774949D02*
X76437211Y-60662149D01*
X76437211Y-60662149D02*
X76417289Y-60547973D01*
X76417289Y-60547973D02*
X76402959Y-60432615D01*
X76402959Y-60432615D02*
X76394303Y-60316268D01*
X76394303Y-60316268D02*
X76391400Y-60199126D01*
X98490526Y-62561477D02*
X78753751Y-62561477D01*
X76391400Y-40462351D02*
X76394303Y-40345208D01*
X76394303Y-40345208D02*
X76402959Y-40228861D01*
X76402959Y-40228861D02*
X76417289Y-40113503D01*
X76417289Y-40113503D02*
X76437211Y-39999327D01*
X76437211Y-39999327D02*
X76462646Y-39886527D01*
X76462646Y-39886527D02*
X76493513Y-39775296D01*
X76493513Y-39775296D02*
X76529732Y-39665829D01*
X76529732Y-39665829D02*
X76571223Y-39558318D01*
X76571223Y-39558318D02*
X76617906Y-39452958D01*
X76617906Y-39452958D02*
X76669700Y-39349942D01*
X76669700Y-39349942D02*
X76726526Y-39249464D01*
X76726526Y-39249464D02*
X76788302Y-39151717D01*
X76788302Y-39151717D02*
X76854950Y-39056895D01*
X76854950Y-39056895D02*
X76926388Y-38965192D01*
X76926388Y-38965192D02*
X77002537Y-38876801D01*
X77002537Y-38876801D02*
X77083317Y-38791917D01*
X77083317Y-38791917D02*
X77168201Y-38711137D01*
X77168201Y-38711137D02*
X77256592Y-38634988D01*
X77256592Y-38634988D02*
X77348295Y-38563550D01*
X77348295Y-38563550D02*
X77443117Y-38496902D01*
X77443117Y-38496902D02*
X77540864Y-38435126D01*
X77540864Y-38435126D02*
X77641342Y-38378300D01*
X77641342Y-38378300D02*
X77744358Y-38326506D01*
X77744358Y-38326506D02*
X77849718Y-38279823D01*
X77849718Y-38279823D02*
X77957229Y-38238332D01*
X77957229Y-38238332D02*
X78066696Y-38202113D01*
X78066696Y-38202113D02*
X78177927Y-38171246D01*
X78177927Y-38171246D02*
X78290727Y-38145811D01*
X78290727Y-38145811D02*
X78404903Y-38125889D01*
X78404903Y-38125889D02*
X78520261Y-38111559D01*
X78520261Y-38111559D02*
X78636608Y-38102903D01*
X78636608Y-38102903D02*
X78753751Y-38100000D01*
X76391400Y-60199126D02*
X76391400Y-40462351D01*
X78753751Y-38100000D02*
X78753751Y-38100000D01*
X100160960Y-38791917D02*
X100241739Y-38876801D01*
X100241739Y-38876801D02*
X100317888Y-38965192D01*
X100317888Y-38965192D02*
X100389326Y-39056895D01*
X100389326Y-39056895D02*
X100455974Y-39151717D01*
X100455974Y-39151717D02*
X100517750Y-39249464D01*
X100517750Y-39249464D02*
X100574576Y-39349942D01*
X100574576Y-39349942D02*
X100626370Y-39452958D01*
X100626370Y-39452958D02*
X100673053Y-39558318D01*
X100673053Y-39558318D02*
X100714544Y-39665829D01*
X100714544Y-39665829D02*
X100750763Y-39775296D01*
X100750763Y-39775296D02*
X100781630Y-39886527D01*
X100781630Y-39886527D02*
X100807065Y-39999327D01*
X100807065Y-39999327D02*
X100826987Y-40113503D01*
X100826987Y-40113503D02*
X100841317Y-40228861D01*
X100841317Y-40228861D02*
X100849973Y-40345208D01*
X100849973Y-40345208D02*
X100852877Y-40462351D01*
D11*
%TO.C,R2*%
X90118000Y-149852748D02*
X90118000Y-150375252D01*
X88698000Y-149852748D02*
X88698000Y-150375252D01*
%TO.C,R1*%
X88086000Y-149852748D02*
X88086000Y-150375252D01*
X86666000Y-149852748D02*
X86666000Y-150375252D01*
%TO.C,J1*%
X83692000Y-160140400D02*
X83692000Y-162040400D01*
X83692000Y-156240400D02*
X83692000Y-158240400D01*
X93092000Y-160140400D02*
X93092000Y-162040400D01*
X93092000Y-156240400D02*
X93092000Y-158240400D01*
X83692000Y-162040400D02*
X93092000Y-162040400D01*
%TD*%
M02*
