%TF.GenerationSoftware,KiCad,Pcbnew,(5.1.6-0-10_14)*%
%TF.CreationDate,2020-09-05T22:35:40+02:00*%
%TF.ProjectId,m5matrix,6d356d61-7472-4697-982e-6b696361645f,rev?*%
%TF.SameCoordinates,Original*%
%TF.FileFunction,Profile,NP*%
%FSLAX46Y46*%
G04 Gerber Fmt 4.6, Leading zero omitted, Abs format (unit mm)*
G04 Created by KiCad (PCBNEW (5.1.6-0-10_14)) date 2020-09-05 22:35:40*
%MOMM*%
%LPD*%
G01*
G04 APERTURE LIST*
%TA.AperFunction,Profile*%
%ADD10C,0.100000*%
%TD*%
G04 APERTURE END LIST*
D10*
X188763688Y-32150787D02*
X188913853Y-32152649D01*
X188913853Y-32152649D02*
X189063572Y-32158219D01*
X189063572Y-32158219D02*
X189212781Y-32167471D01*
X189212781Y-32167471D02*
X189361420Y-32180380D01*
X189361420Y-32180380D02*
X189509426Y-32196919D01*
X189509426Y-32196919D02*
X189656738Y-32217063D01*
X189656738Y-32217063D02*
X189803293Y-32240786D01*
X189803293Y-32240786D02*
X189949029Y-32268064D01*
X189949029Y-32268064D02*
X190093884Y-32298869D01*
X190093884Y-32298869D02*
X190237797Y-32333176D01*
X190237797Y-32333176D02*
X190380706Y-32370961D01*
X190380706Y-32370961D02*
X190522548Y-32412196D01*
X190522548Y-32412196D02*
X190663261Y-32456857D01*
X190663261Y-32456857D02*
X190802784Y-32504917D01*
X190802784Y-32504917D02*
X190941055Y-32556351D01*
X190941055Y-32556351D02*
X191078011Y-32611134D01*
X191078011Y-32611134D02*
X191213591Y-32669240D01*
X191213591Y-32669240D02*
X191347733Y-32730642D01*
X191347733Y-32730642D02*
X191480374Y-32795316D01*
X191480374Y-32795316D02*
X191611453Y-32863236D01*
X191611453Y-32863236D02*
X191740909Y-32934375D01*
X191740909Y-32934375D02*
X191868678Y-33008710D01*
X191868678Y-33008710D02*
X191994699Y-33086212D01*
X191994699Y-33086212D02*
X192118909Y-33166858D01*
X192118909Y-33166858D02*
X192241248Y-33250621D01*
X192241248Y-33250621D02*
X192361653Y-33337476D01*
X192361653Y-33337476D02*
X192480062Y-33427397D01*
X192480062Y-33427397D02*
X192596413Y-33520359D01*
X192596413Y-33520359D02*
X192710645Y-33616335D01*
X192710645Y-33616335D02*
X192822694Y-33715300D01*
X192822694Y-33715300D02*
X192932500Y-33817228D01*
X192932500Y-33817228D02*
X193040000Y-33922095D01*
X70964406Y-32150787D02*
X70964406Y-32150787D01*
X64916787Y-155997688D02*
X64916787Y-38198406D01*
X66688094Y-33922095D02*
X66795593Y-33817228D01*
X66795593Y-33817228D02*
X66905399Y-33715300D01*
X66905399Y-33715300D02*
X67017448Y-33616335D01*
X67017448Y-33616335D02*
X67131680Y-33520359D01*
X67131680Y-33520359D02*
X67248031Y-33427397D01*
X67248031Y-33427397D02*
X67366440Y-33337476D01*
X67366440Y-33337476D02*
X67486845Y-33250621D01*
X67486845Y-33250621D02*
X67609184Y-33166858D01*
X67609184Y-33166858D02*
X67733394Y-33086212D01*
X67733394Y-33086212D02*
X67859415Y-33008710D01*
X67859415Y-33008710D02*
X67987184Y-32934375D01*
X67987184Y-32934375D02*
X68116640Y-32863236D01*
X68116640Y-32863236D02*
X68247719Y-32795316D01*
X68247719Y-32795316D02*
X68380360Y-32730642D01*
X68380360Y-32730642D02*
X68514502Y-32669240D01*
X68514502Y-32669240D02*
X68650082Y-32611134D01*
X68650082Y-32611134D02*
X68787038Y-32556351D01*
X68787038Y-32556351D02*
X68925309Y-32504917D01*
X68925309Y-32504917D02*
X69064832Y-32456857D01*
X69064832Y-32456857D02*
X69205545Y-32412196D01*
X69205545Y-32412196D02*
X69347387Y-32370961D01*
X69347387Y-32370961D02*
X69490296Y-32333176D01*
X69490296Y-32333176D02*
X69634209Y-32298869D01*
X69634209Y-32298869D02*
X69779064Y-32268064D01*
X69779064Y-32268064D02*
X69924800Y-32240786D01*
X69924800Y-32240786D02*
X70071355Y-32217063D01*
X70071355Y-32217063D02*
X70218667Y-32196919D01*
X70218667Y-32196919D02*
X70366673Y-32180380D01*
X70366673Y-32180380D02*
X70515312Y-32167471D01*
X70515312Y-32167471D02*
X70664521Y-32158219D01*
X70664521Y-32158219D02*
X70814240Y-32152649D01*
X70814240Y-32152649D02*
X70964406Y-32150787D01*
X64916787Y-38198406D02*
X64918649Y-38048240D01*
X64918649Y-38048240D02*
X64924219Y-37898521D01*
X64924219Y-37898521D02*
X64933471Y-37749312D01*
X64933471Y-37749312D02*
X64946380Y-37600673D01*
X64946380Y-37600673D02*
X64962919Y-37452667D01*
X64962919Y-37452667D02*
X64983063Y-37305355D01*
X64983063Y-37305355D02*
X65006786Y-37158800D01*
X65006786Y-37158800D02*
X65034064Y-37013064D01*
X65034064Y-37013064D02*
X65064869Y-36868209D01*
X65064869Y-36868209D02*
X65099176Y-36724296D01*
X65099176Y-36724296D02*
X65136961Y-36581387D01*
X65136961Y-36581387D02*
X65178196Y-36439545D01*
X65178196Y-36439545D02*
X65222857Y-36298832D01*
X65222857Y-36298832D02*
X65270917Y-36159309D01*
X65270917Y-36159309D02*
X65322351Y-36021038D01*
X65322351Y-36021038D02*
X65377134Y-35884082D01*
X65377134Y-35884082D02*
X65435240Y-35748502D01*
X65435240Y-35748502D02*
X65496642Y-35614360D01*
X65496642Y-35614360D02*
X65561316Y-35481719D01*
X65561316Y-35481719D02*
X65629236Y-35350640D01*
X65629236Y-35350640D02*
X65700375Y-35221185D01*
X65700375Y-35221185D02*
X65774709Y-35093416D01*
X65774709Y-35093416D02*
X65852212Y-34967395D01*
X65852212Y-34967395D02*
X65932858Y-34843184D01*
X65932858Y-34843184D02*
X66016621Y-34720845D01*
X66016621Y-34720845D02*
X66103476Y-34600440D01*
X66103476Y-34600440D02*
X66193397Y-34482031D01*
X66193397Y-34482031D02*
X66286358Y-34365680D01*
X66286358Y-34365680D02*
X66382334Y-34251449D01*
X66382334Y-34251449D02*
X66481299Y-34139400D01*
X66481299Y-34139400D02*
X66583227Y-34029594D01*
X66583227Y-34029594D02*
X66688094Y-33922095D01*
X188763688Y-162045307D02*
X70964406Y-162045307D01*
X66688094Y-160274000D02*
X66583227Y-160166500D01*
X66583227Y-160166500D02*
X66481299Y-160056694D01*
X66481299Y-160056694D02*
X66382334Y-159944645D01*
X66382334Y-159944645D02*
X66286358Y-159830413D01*
X66286358Y-159830413D02*
X66193397Y-159714062D01*
X66193397Y-159714062D02*
X66103476Y-159595653D01*
X66103476Y-159595653D02*
X66016621Y-159475248D01*
X66016621Y-159475248D02*
X65932858Y-159352909D01*
X65932858Y-159352909D02*
X65852212Y-159228699D01*
X65852212Y-159228699D02*
X65774709Y-159102678D01*
X65774709Y-159102678D02*
X65700375Y-158974909D01*
X65700375Y-158974909D02*
X65629236Y-158845453D01*
X65629236Y-158845453D02*
X65561316Y-158714374D01*
X65561316Y-158714374D02*
X65496642Y-158581733D01*
X65496642Y-158581733D02*
X65435240Y-158447591D01*
X65435240Y-158447591D02*
X65377134Y-158312011D01*
X65377134Y-158312011D02*
X65322351Y-158175055D01*
X65322351Y-158175055D02*
X65270917Y-158036784D01*
X65270917Y-158036784D02*
X65222857Y-157897261D01*
X65222857Y-157897261D02*
X65178196Y-157756548D01*
X65178196Y-157756548D02*
X65136961Y-157614706D01*
X65136961Y-157614706D02*
X65099176Y-157471797D01*
X65099176Y-157471797D02*
X65064869Y-157327884D01*
X65064869Y-157327884D02*
X65034064Y-157183029D01*
X65034064Y-157183029D02*
X65006786Y-157037293D01*
X65006786Y-157037293D02*
X64983063Y-156890738D01*
X64983063Y-156890738D02*
X64962919Y-156743426D01*
X64962919Y-156743426D02*
X64946380Y-156595420D01*
X64946380Y-156595420D02*
X64933471Y-156446781D01*
X64933471Y-156446781D02*
X64924219Y-156297572D01*
X64924219Y-156297572D02*
X64918649Y-156147853D01*
X64918649Y-156147853D02*
X64916787Y-155997688D01*
X70964406Y-162045307D02*
X70814240Y-162043444D01*
X70814240Y-162043444D02*
X70664521Y-162037874D01*
X70664521Y-162037874D02*
X70515312Y-162028622D01*
X70515312Y-162028622D02*
X70366673Y-162015713D01*
X70366673Y-162015713D02*
X70218667Y-161999174D01*
X70218667Y-161999174D02*
X70071355Y-161979030D01*
X70071355Y-161979030D02*
X69924800Y-161955307D01*
X69924800Y-161955307D02*
X69779064Y-161928029D01*
X69779064Y-161928029D02*
X69634209Y-161897224D01*
X69634209Y-161897224D02*
X69490296Y-161862917D01*
X69490296Y-161862917D02*
X69347387Y-161825132D01*
X69347387Y-161825132D02*
X69205545Y-161783897D01*
X69205545Y-161783897D02*
X69064832Y-161739236D01*
X69064832Y-161739236D02*
X68925309Y-161691176D01*
X68925309Y-161691176D02*
X68787038Y-161639742D01*
X68787038Y-161639742D02*
X68650082Y-161584959D01*
X68650082Y-161584959D02*
X68514502Y-161526853D01*
X68514502Y-161526853D02*
X68380360Y-161465451D01*
X68380360Y-161465451D02*
X68247719Y-161400777D01*
X68247719Y-161400777D02*
X68116640Y-161332857D01*
X68116640Y-161332857D02*
X67987184Y-161261718D01*
X67987184Y-161261718D02*
X67859415Y-161187384D01*
X67859415Y-161187384D02*
X67733394Y-161109881D01*
X67733394Y-161109881D02*
X67609184Y-161029235D01*
X67609184Y-161029235D02*
X67486845Y-160945472D01*
X67486845Y-160945472D02*
X67366440Y-160858617D01*
X67366440Y-160858617D02*
X67248031Y-160768696D01*
X67248031Y-160768696D02*
X67131680Y-160675735D01*
X67131680Y-160675735D02*
X67017448Y-160579759D01*
X67017448Y-160579759D02*
X66905399Y-160480794D01*
X66905399Y-160480794D02*
X66795593Y-160378866D01*
X66795593Y-160378866D02*
X66688094Y-160274000D01*
X70964406Y-32150787D02*
X188763688Y-32150787D01*
X194811307Y-155997688D02*
X194809444Y-156147853D01*
X194809444Y-156147853D02*
X194803874Y-156297572D01*
X194803874Y-156297572D02*
X194794622Y-156446781D01*
X194794622Y-156446781D02*
X194781713Y-156595420D01*
X194781713Y-156595420D02*
X194765174Y-156743426D01*
X194765174Y-156743426D02*
X194745030Y-156890738D01*
X194745030Y-156890738D02*
X194721307Y-157037293D01*
X194721307Y-157037293D02*
X194694029Y-157183029D01*
X194694029Y-157183029D02*
X194663224Y-157327884D01*
X194663224Y-157327884D02*
X194628917Y-157471797D01*
X194628917Y-157471797D02*
X194591132Y-157614706D01*
X194591132Y-157614706D02*
X194549897Y-157756548D01*
X194549897Y-157756548D02*
X194505236Y-157897261D01*
X194505236Y-157897261D02*
X194457176Y-158036784D01*
X194457176Y-158036784D02*
X194405742Y-158175055D01*
X194405742Y-158175055D02*
X194350959Y-158312011D01*
X194350959Y-158312011D02*
X194292853Y-158447591D01*
X194292853Y-158447591D02*
X194231451Y-158581733D01*
X194231451Y-158581733D02*
X194166777Y-158714374D01*
X194166777Y-158714374D02*
X194098857Y-158845453D01*
X194098857Y-158845453D02*
X194027718Y-158974909D01*
X194027718Y-158974909D02*
X193953384Y-159102678D01*
X193953384Y-159102678D02*
X193875881Y-159228699D01*
X193875881Y-159228699D02*
X193795235Y-159352909D01*
X193795235Y-159352909D02*
X193711472Y-159475248D01*
X193711472Y-159475248D02*
X193624617Y-159595653D01*
X193624617Y-159595653D02*
X193534696Y-159714062D01*
X193534696Y-159714062D02*
X193441735Y-159830413D01*
X193441735Y-159830413D02*
X193345759Y-159944645D01*
X193345759Y-159944645D02*
X193246794Y-160056694D01*
X193246794Y-160056694D02*
X193144866Y-160166500D01*
X193144866Y-160166500D02*
X193040000Y-160274000D01*
X193040000Y-33922095D02*
X193144866Y-34029594D01*
X193144866Y-34029594D02*
X193246794Y-34139400D01*
X193246794Y-34139400D02*
X193345759Y-34251449D01*
X193345759Y-34251449D02*
X193441735Y-34365680D01*
X193441735Y-34365680D02*
X193534696Y-34482031D01*
X193534696Y-34482031D02*
X193624617Y-34600440D01*
X193624617Y-34600440D02*
X193711472Y-34720845D01*
X193711472Y-34720845D02*
X193795235Y-34843184D01*
X193795235Y-34843184D02*
X193875881Y-34967395D01*
X193875881Y-34967395D02*
X193953384Y-35093416D01*
X193953384Y-35093416D02*
X194027718Y-35221185D01*
X194027718Y-35221185D02*
X194098857Y-35350640D01*
X194098857Y-35350640D02*
X194166777Y-35481719D01*
X194166777Y-35481719D02*
X194231451Y-35614360D01*
X194231451Y-35614360D02*
X194292853Y-35748502D01*
X194292853Y-35748502D02*
X194350959Y-35884082D01*
X194350959Y-35884082D02*
X194405742Y-36021038D01*
X194405742Y-36021038D02*
X194457176Y-36159309D01*
X194457176Y-36159309D02*
X194505236Y-36298832D01*
X194505236Y-36298832D02*
X194549897Y-36439545D01*
X194549897Y-36439545D02*
X194591132Y-36581387D01*
X194591132Y-36581387D02*
X194628917Y-36724296D01*
X194628917Y-36724296D02*
X194663224Y-36868209D01*
X194663224Y-36868209D02*
X194694029Y-37013064D01*
X194694029Y-37013064D02*
X194721307Y-37158800D01*
X194721307Y-37158800D02*
X194745030Y-37305355D01*
X194745030Y-37305355D02*
X194765174Y-37452667D01*
X194765174Y-37452667D02*
X194781713Y-37600673D01*
X194781713Y-37600673D02*
X194794622Y-37749312D01*
X194794622Y-37749312D02*
X194803874Y-37898521D01*
X194803874Y-37898521D02*
X194809444Y-38048240D01*
X194809444Y-38048240D02*
X194811307Y-38198406D01*
X194811307Y-38198406D02*
X194811307Y-155997688D01*
X193040000Y-160274000D02*
X192932500Y-160378866D01*
X192932500Y-160378866D02*
X192822694Y-160480794D01*
X192822694Y-160480794D02*
X192710645Y-160579759D01*
X192710645Y-160579759D02*
X192596413Y-160675735D01*
X192596413Y-160675735D02*
X192480062Y-160768696D01*
X192480062Y-160768696D02*
X192361653Y-160858617D01*
X192361653Y-160858617D02*
X192241248Y-160945472D01*
X192241248Y-160945472D02*
X192118909Y-161029235D01*
X192118909Y-161029235D02*
X191994699Y-161109881D01*
X191994699Y-161109881D02*
X191868678Y-161187384D01*
X191868678Y-161187384D02*
X191740909Y-161261718D01*
X191740909Y-161261718D02*
X191611453Y-161332857D01*
X191611453Y-161332857D02*
X191480374Y-161400777D01*
X191480374Y-161400777D02*
X191347733Y-161465451D01*
X191347733Y-161465451D02*
X191213591Y-161526853D01*
X191213591Y-161526853D02*
X191078011Y-161584959D01*
X191078011Y-161584959D02*
X190941055Y-161639742D01*
X190941055Y-161639742D02*
X190802784Y-161691176D01*
X190802784Y-161691176D02*
X190663261Y-161739236D01*
X190663261Y-161739236D02*
X190522548Y-161783897D01*
X190522548Y-161783897D02*
X190380706Y-161825132D01*
X190380706Y-161825132D02*
X190237797Y-161862917D01*
X190237797Y-161862917D02*
X190093884Y-161897224D01*
X190093884Y-161897224D02*
X189949029Y-161928029D01*
X189949029Y-161928029D02*
X189803293Y-161955307D01*
X189803293Y-161955307D02*
X189656738Y-161979030D01*
X189656738Y-161979030D02*
X189509426Y-161999174D01*
X189509426Y-161999174D02*
X189361420Y-162015713D01*
X189361420Y-162015713D02*
X189212781Y-162028622D01*
X189212781Y-162028622D02*
X189063572Y-162037874D01*
X189063572Y-162037874D02*
X188913853Y-162043444D01*
X188913853Y-162043444D02*
X188763688Y-162045307D01*
M02*
