%TF.GenerationSoftware,KiCad,Pcbnew,(5.1.6-0-10_14)*%
%TF.CreationDate,2020-09-05T22:35:39+02:00*%
%TF.ProjectId,m5matrix,6d356d61-7472-4697-982e-6b696361645f,rev?*%
%TF.SameCoordinates,Original*%
%TF.FileFunction,Paste,Top*%
%TF.FilePolarity,Positive*%
%FSLAX46Y46*%
G04 Gerber Fmt 4.6, Leading zero omitted, Abs format (unit mm)*
G04 Created by KiCad (PCBNEW (5.1.6-0-10_14)) date 2020-09-05 22:35:39*
%MOMM*%
%LPD*%
G01*
G04 APERTURE LIST*
%ADD10R,0.600000X1.450000*%
%ADD11R,0.300000X1.450000*%
G04 APERTURE END LIST*
%TO.C,R2*%
G36*
G01*
X88957999Y-150564000D02*
X89858001Y-150564000D01*
G75*
G02*
X90108000Y-150813999I0J-249999D01*
G01*
X90108000Y-151464001D01*
G75*
G02*
X89858001Y-151714000I-249999J0D01*
G01*
X88957999Y-151714000D01*
G75*
G02*
X88708000Y-151464001I0J249999D01*
G01*
X88708000Y-150813999D01*
G75*
G02*
X88957999Y-150564000I249999J0D01*
G01*
G37*
G36*
G01*
X88957999Y-148514000D02*
X89858001Y-148514000D01*
G75*
G02*
X90108000Y-148763999I0J-249999D01*
G01*
X90108000Y-149414001D01*
G75*
G02*
X89858001Y-149664000I-249999J0D01*
G01*
X88957999Y-149664000D01*
G75*
G02*
X88708000Y-149414001I0J249999D01*
G01*
X88708000Y-148763999D01*
G75*
G02*
X88957999Y-148514000I249999J0D01*
G01*
G37*
%TD*%
%TO.C,R1*%
G36*
G01*
X86925999Y-150564000D02*
X87826001Y-150564000D01*
G75*
G02*
X88076000Y-150813999I0J-249999D01*
G01*
X88076000Y-151464001D01*
G75*
G02*
X87826001Y-151714000I-249999J0D01*
G01*
X86925999Y-151714000D01*
G75*
G02*
X86676000Y-151464001I0J249999D01*
G01*
X86676000Y-150813999D01*
G75*
G02*
X86925999Y-150564000I249999J0D01*
G01*
G37*
G36*
G01*
X86925999Y-148514000D02*
X87826001Y-148514000D01*
G75*
G02*
X88076000Y-148763999I0J-249999D01*
G01*
X88076000Y-149414001D01*
G75*
G02*
X87826001Y-149664000I-249999J0D01*
G01*
X86925999Y-149664000D01*
G75*
G02*
X86676000Y-149414001I0J249999D01*
G01*
X86676000Y-148763999D01*
G75*
G02*
X86925999Y-148514000I249999J0D01*
G01*
G37*
%TD*%
D10*
%TO.C,J1*%
X91642000Y-154095400D03*
X90842000Y-154095400D03*
X85942000Y-154095400D03*
X85142000Y-154095400D03*
X85142000Y-154095400D03*
X85942000Y-154095400D03*
X90842000Y-154095400D03*
X91642000Y-154095400D03*
D11*
X86642000Y-154095400D03*
X87142000Y-154095400D03*
X87642000Y-154095400D03*
X88642000Y-154095400D03*
X89142000Y-154095400D03*
X89642000Y-154095400D03*
X90142000Y-154095400D03*
X88142000Y-154095400D03*
%TD*%
M02*
