%TF.GenerationSoftware,KiCad,Pcbnew,(5.1.6-0-10_14)*%
%TF.CreationDate,2020-09-05T22:35:40+02:00*%
%TF.ProjectId,m5matrix,6d356d61-7472-4697-982e-6b696361645f,rev?*%
%TF.SameCoordinates,Original*%
%TF.FileFunction,Legend,Bot*%
%TF.FilePolarity,Positive*%
%FSLAX46Y46*%
G04 Gerber Fmt 4.6, Leading zero omitted, Abs format (unit mm)*
G04 Created by KiCad (PCBNEW (5.1.6-0-10_14)) date 2020-09-05 22:35:40*
%MOMM*%
%LPD*%
G01*
G04 APERTURE LIST*
%ADD10C,0.300000*%
%ADD11C,0.120000*%
%ADD12C,0.150000*%
G04 APERTURE END LIST*
D10*
X97665714Y-130472571D02*
X97665714Y-128972571D01*
X97022857Y-129115428D02*
X96951428Y-129044000D01*
X96808571Y-128972571D01*
X96451428Y-128972571D01*
X96308571Y-129044000D01*
X96237142Y-129115428D01*
X96165714Y-129258285D01*
X96165714Y-129401142D01*
X96237142Y-129615428D01*
X97094285Y-130472571D01*
X96165714Y-130472571D01*
X94665714Y-130329714D02*
X94737142Y-130401142D01*
X94951428Y-130472571D01*
X95094285Y-130472571D01*
X95308571Y-130401142D01*
X95451428Y-130258285D01*
X95522857Y-130115428D01*
X95594285Y-129829714D01*
X95594285Y-129615428D01*
X95522857Y-129329714D01*
X95451428Y-129186857D01*
X95308571Y-129044000D01*
X95094285Y-128972571D01*
X94951428Y-128972571D01*
X94737142Y-129044000D01*
X94665714Y-129115428D01*
X92880000Y-129472571D02*
X92880000Y-130972571D01*
X92880000Y-129544000D02*
X92737142Y-129472571D01*
X92451428Y-129472571D01*
X92308571Y-129544000D01*
X92237142Y-129615428D01*
X92165714Y-129758285D01*
X92165714Y-130186857D01*
X92237142Y-130329714D01*
X92308571Y-130401142D01*
X92451428Y-130472571D01*
X92737142Y-130472571D01*
X92880000Y-130401142D01*
X90880000Y-129472571D02*
X90880000Y-130472571D01*
X91522857Y-129472571D02*
X91522857Y-130258285D01*
X91451428Y-130401142D01*
X91308571Y-130472571D01*
X91094285Y-130472571D01*
X90951428Y-130401142D01*
X90880000Y-130329714D01*
X89951428Y-130472571D02*
X90094285Y-130401142D01*
X90165714Y-130258285D01*
X90165714Y-128972571D01*
X89165714Y-130472571D02*
X89308571Y-130401142D01*
X89380000Y-130258285D01*
X89380000Y-128972571D01*
X87951428Y-129472571D02*
X87951428Y-130472571D01*
X88594285Y-129472571D02*
X88594285Y-130258285D01*
X88522857Y-130401142D01*
X88380000Y-130472571D01*
X88165714Y-130472571D01*
X88022857Y-130401142D01*
X87951428Y-130329714D01*
X87237142Y-129472571D02*
X87237142Y-130972571D01*
X87237142Y-129544000D02*
X87094285Y-129472571D01*
X86808571Y-129472571D01*
X86665714Y-129544000D01*
X86594285Y-129615428D01*
X86522857Y-129758285D01*
X86522857Y-130186857D01*
X86594285Y-130329714D01*
X86665714Y-130401142D01*
X86808571Y-130472571D01*
X87094285Y-130472571D01*
X87237142Y-130401142D01*
X84808571Y-129115428D02*
X84737142Y-129044000D01*
X84594285Y-128972571D01*
X84237142Y-128972571D01*
X84094285Y-129044000D01*
X84022857Y-129115428D01*
X83951428Y-129258285D01*
X83951428Y-129401142D01*
X84022857Y-129615428D01*
X84880000Y-130472571D01*
X83951428Y-130472571D01*
X83451428Y-130472571D02*
X82665714Y-129472571D01*
X83451428Y-129472571D02*
X82665714Y-130472571D01*
X80308571Y-129472571D02*
X80308571Y-130472571D01*
X80665714Y-128901142D02*
X81022857Y-129972571D01*
X80094285Y-129972571D01*
X79522857Y-130472571D02*
X79522857Y-128972571D01*
X79380000Y-129901142D02*
X78951428Y-130472571D01*
X78951428Y-129472571D02*
X79522857Y-130044000D01*
X78451428Y-128972571D02*
X77451428Y-128972571D01*
X78094285Y-130472571D01*
D11*
%TO.C,R4*%
X85614252Y-136450000D02*
X85091748Y-136450000D01*
X85614252Y-137870000D02*
X85091748Y-137870000D01*
%TO.C,R3*%
X85596252Y-133910000D02*
X85073748Y-133910000D01*
X85596252Y-135330000D02*
X85073748Y-135330000D01*
%TO.C,R4*%
D12*
X85519666Y-135962380D02*
X85853000Y-135486190D01*
X86091095Y-135962380D02*
X86091095Y-134962380D01*
X85710142Y-134962380D01*
X85614904Y-135010000D01*
X85567285Y-135057619D01*
X85519666Y-135152857D01*
X85519666Y-135295714D01*
X85567285Y-135390952D01*
X85614904Y-135438571D01*
X85710142Y-135486190D01*
X86091095Y-135486190D01*
X84662523Y-135295714D02*
X84662523Y-135962380D01*
X84900619Y-134914761D02*
X85138714Y-135629047D01*
X84519666Y-135629047D01*
%TO.C,R3*%
X85501666Y-133422380D02*
X85835000Y-132946190D01*
X86073095Y-133422380D02*
X86073095Y-132422380D01*
X85692142Y-132422380D01*
X85596904Y-132470000D01*
X85549285Y-132517619D01*
X85501666Y-132612857D01*
X85501666Y-132755714D01*
X85549285Y-132850952D01*
X85596904Y-132898571D01*
X85692142Y-132946190D01*
X86073095Y-132946190D01*
X85168333Y-132422380D02*
X84549285Y-132422380D01*
X84882619Y-132803333D01*
X84739761Y-132803333D01*
X84644523Y-132850952D01*
X84596904Y-132898571D01*
X84549285Y-132993809D01*
X84549285Y-133231904D01*
X84596904Y-133327142D01*
X84644523Y-133374761D01*
X84739761Y-133422380D01*
X85025476Y-133422380D01*
X85120714Y-133374761D01*
X85168333Y-133327142D01*
%TD*%
M02*
