%TF.GenerationSoftware,KiCad,Pcbnew,(5.1.6-0-10_14)*%
%TF.CreationDate,2020-09-05T22:35:40+02:00*%
%TF.ProjectId,m5matrix,6d356d61-7472-4697-982e-6b696361645f,rev?*%
%TF.SameCoordinates,Original*%
%TF.FileFunction,Soldermask,Bot*%
%TF.FilePolarity,Negative*%
%FSLAX46Y46*%
G04 Gerber Fmt 4.6, Leading zero omitted, Abs format (unit mm)*
G04 Created by KiCad (PCBNEW (5.1.6-0-10_14)) date 2020-09-05 22:35:40*
%MOMM*%
%LPD*%
G01*
G04 APERTURE LIST*
%ADD10C,3.300000*%
%ADD11O,1.300000X1.850000*%
%ADD12C,1.624000*%
%ADD13O,1.100000X2.200000*%
%ADD14C,0.750000*%
%ADD15O,1.100000X1.700000*%
G04 APERTURE END LIST*
D10*
%TO.C,H4*%
X70866000Y-153162000D03*
%TD*%
%TO.C,H3*%
X189484000Y-40894000D03*
%TD*%
%TO.C,H2*%
X189484000Y-153162000D03*
%TD*%
%TO.C,H1*%
X70866000Y-40894000D03*
%TD*%
D11*
%TO.C,J2*%
X176244000Y-155194000D03*
X174244000Y-155194000D03*
X172244000Y-155194000D03*
G36*
G01*
X169594000Y-155848168D02*
X169594000Y-154539832D01*
G75*
G02*
X169864832Y-154269000I270832J0D01*
G01*
X170623168Y-154269000D01*
G75*
G02*
X170894000Y-154539832I0J-270832D01*
G01*
X170894000Y-155848168D01*
G75*
G02*
X170623168Y-156119000I-270832J0D01*
G01*
X169864832Y-156119000D01*
G75*
G02*
X169594000Y-155848168I0J270832D01*
G01*
G37*
%TD*%
%TO.C,R4*%
G36*
G01*
X84953000Y-136681738D02*
X84953000Y-137638262D01*
G75*
G02*
X84681262Y-137910000I-271738J0D01*
G01*
X83974738Y-137910000D01*
G75*
G02*
X83703000Y-137638262I0J271738D01*
G01*
X83703000Y-136681738D01*
G75*
G02*
X83974738Y-136410000I271738J0D01*
G01*
X84681262Y-136410000D01*
G75*
G02*
X84953000Y-136681738I0J-271738D01*
G01*
G37*
G36*
G01*
X87003000Y-136681738D02*
X87003000Y-137638262D01*
G75*
G02*
X86731262Y-137910000I-271738J0D01*
G01*
X86024738Y-137910000D01*
G75*
G02*
X85753000Y-137638262I0J271738D01*
G01*
X85753000Y-136681738D01*
G75*
G02*
X86024738Y-136410000I271738J0D01*
G01*
X86731262Y-136410000D01*
G75*
G02*
X87003000Y-136681738I0J-271738D01*
G01*
G37*
%TD*%
%TO.C,R3*%
G36*
G01*
X84935000Y-134141738D02*
X84935000Y-135098262D01*
G75*
G02*
X84663262Y-135370000I-271738J0D01*
G01*
X83956738Y-135370000D01*
G75*
G02*
X83685000Y-135098262I0J271738D01*
G01*
X83685000Y-134141738D01*
G75*
G02*
X83956738Y-133870000I271738J0D01*
G01*
X84663262Y-133870000D01*
G75*
G02*
X84935000Y-134141738I0J-271738D01*
G01*
G37*
G36*
G01*
X86985000Y-134141738D02*
X86985000Y-135098262D01*
G75*
G02*
X86713262Y-135370000I-271738J0D01*
G01*
X86006738Y-135370000D01*
G75*
G02*
X85735000Y-135098262I0J271738D01*
G01*
X85735000Y-134141738D01*
G75*
G02*
X86006738Y-133870000I271738J0D01*
G01*
X86713262Y-133870000D01*
G75*
G02*
X86985000Y-134141738I0J-271738D01*
G01*
G37*
%TD*%
D12*
%TO.C,U16*%
X164592000Y-134772400D03*
X164592000Y-137312400D03*
X164592000Y-139852400D03*
X164592000Y-142392400D03*
X179832000Y-142392400D03*
X179832000Y-139852400D03*
X179832000Y-137312400D03*
X179832000Y-134772400D03*
X179832000Y-132232400D03*
%TD*%
%TO.C,U15*%
X108542666Y-134772400D03*
X108542666Y-137312400D03*
X108542666Y-139852400D03*
X108542666Y-142392400D03*
X123782666Y-142392400D03*
X123782666Y-139852400D03*
X123782666Y-137312400D03*
X123782666Y-134772400D03*
X123782666Y-132232400D03*
%TD*%
%TO.C,U14*%
X136567332Y-134772400D03*
X136567332Y-137312400D03*
X136567332Y-139852400D03*
X136567332Y-142392400D03*
X151807332Y-142392400D03*
X151807332Y-139852400D03*
X151807332Y-137312400D03*
X151807332Y-134772400D03*
X151807332Y-132232400D03*
%TD*%
%TO.C,U13*%
X164592000Y-106781600D03*
X164592000Y-109321600D03*
X164592000Y-111861600D03*
X164592000Y-114401600D03*
X179832000Y-114401600D03*
X179832000Y-111861600D03*
X179832000Y-109321600D03*
X179832000Y-106781600D03*
X179832000Y-104241600D03*
%TD*%
%TO.C,U12*%
X80710526Y-134772400D03*
X80710526Y-137312400D03*
X80710526Y-139852400D03*
X80710526Y-142392400D03*
X95950526Y-142392400D03*
X95950526Y-139852400D03*
X95950526Y-137312400D03*
X95950526Y-134772400D03*
X95950526Y-132232400D03*
%TD*%
%TO.C,U11*%
X164592000Y-78790800D03*
X164592000Y-81330800D03*
X164592000Y-83870800D03*
X164592000Y-86410800D03*
X179832000Y-86410800D03*
X179832000Y-83870800D03*
X179832000Y-81330800D03*
X179832000Y-78790800D03*
X179832000Y-76250800D03*
%TD*%
%TO.C,U10*%
X136567332Y-106781600D03*
X136567332Y-109321600D03*
X136567332Y-111861600D03*
X136567332Y-114401600D03*
X151807332Y-114401600D03*
X151807332Y-111861600D03*
X151807332Y-109321600D03*
X151807332Y-106781600D03*
X151807332Y-104241600D03*
%TD*%
%TO.C,U9*%
X164592000Y-50800000D03*
X164592000Y-53340000D03*
X164592000Y-55880000D03*
X164592000Y-58420000D03*
X179832000Y-58420000D03*
X179832000Y-55880000D03*
X179832000Y-53340000D03*
X179832000Y-50800000D03*
X179832000Y-48260000D03*
%TD*%
%TO.C,U8*%
X136567332Y-78790800D03*
X136567332Y-81330800D03*
X136567332Y-83870800D03*
X136567332Y-86410800D03*
X151807332Y-86410800D03*
X151807332Y-83870800D03*
X151807332Y-81330800D03*
X151807332Y-78790800D03*
X151807332Y-76250800D03*
%TD*%
%TO.C,U7*%
X108542666Y-106781600D03*
X108542666Y-109321600D03*
X108542666Y-111861600D03*
X108542666Y-114401600D03*
X123782666Y-114401600D03*
X123782666Y-111861600D03*
X123782666Y-109321600D03*
X123782666Y-106781600D03*
X123782666Y-104241600D03*
%TD*%
%TO.C,U6*%
X136567332Y-50800000D03*
X136567332Y-53340000D03*
X136567332Y-55880000D03*
X136567332Y-58420000D03*
X151807332Y-58420000D03*
X151807332Y-55880000D03*
X151807332Y-53340000D03*
X151807332Y-50800000D03*
X151807332Y-48260000D03*
%TD*%
%TO.C,U5*%
X108542666Y-78790800D03*
X108542666Y-81330800D03*
X108542666Y-83870800D03*
X108542666Y-86410800D03*
X123782666Y-86410800D03*
X123782666Y-83870800D03*
X123782666Y-81330800D03*
X123782666Y-78790800D03*
X123782666Y-76250800D03*
%TD*%
%TO.C,U4*%
X80710526Y-106781600D03*
X80710526Y-109321600D03*
X80710526Y-111861600D03*
X80710526Y-114401600D03*
X95950526Y-114401600D03*
X95950526Y-111861600D03*
X95950526Y-109321600D03*
X95950526Y-106781600D03*
X95950526Y-104241600D03*
%TD*%
%TO.C,U3*%
X108542666Y-50800000D03*
X108542666Y-53340000D03*
X108542666Y-55880000D03*
X108542666Y-58420000D03*
X123782666Y-58420000D03*
X123782666Y-55880000D03*
X123782666Y-53340000D03*
X123782666Y-50800000D03*
X123782666Y-48260000D03*
%TD*%
%TO.C,U2*%
X80710526Y-78790800D03*
X80710526Y-81330800D03*
X80710526Y-83870800D03*
X80710526Y-86410800D03*
X95950526Y-86410800D03*
X95950526Y-83870800D03*
X95950526Y-81330800D03*
X95950526Y-78790800D03*
X95950526Y-76250800D03*
%TD*%
%TO.C,U1*%
X80710526Y-50800000D03*
X80710526Y-53340000D03*
X80710526Y-55880000D03*
X80710526Y-58420000D03*
X95950526Y-58420000D03*
X95950526Y-55880000D03*
X95950526Y-53340000D03*
X95950526Y-50800000D03*
X95950526Y-48260000D03*
%TD*%
D13*
%TO.C,J1*%
X92712000Y-155010400D03*
X84072000Y-155010400D03*
D14*
X85502000Y-155540400D03*
D15*
X84072000Y-159190400D03*
D14*
X91282000Y-155540400D03*
D15*
X92712000Y-159190400D03*
%TD*%
M02*
