M48
; DRILL file {KiCad (5.1.6-0-10_14)} date Saturday, September 05, 2020 at 10:22:32 PM
; FORMAT={-:-/ absolute / inch / decimal}
; #@! TF.CreationDate,2020-09-05T22:22:32+02:00
; #@! TF.GenerationSoftware,Kicad,Pcbnew,(5.1.6-0-10_14)
; #@! TF.FileFunction,Plated,1,2,PTH
FMAT,2
INCH
T1C0.0157
T2C0.0236
T3C0.0295
T4C0.0300
%
G90
G05
T1
X3.48Y-5.83
T3
X6.7025Y-6.11
X6.7813Y-6.11
X6.86Y-6.11
X6.9387Y-6.11
T4
X3.1776Y-2.0
X3.1776Y-2.1
X3.1776Y-2.2
X3.1776Y-2.3
X3.7776Y-1.9
X3.7776Y-2.0
X3.7776Y-2.1
X3.7776Y-2.2
X3.7776Y-2.3
X3.1776Y-3.102
X3.1776Y-3.202
X3.1776Y-3.302
X3.1776Y-3.402
X3.7776Y-3.002
X3.7776Y-3.102
X3.7776Y-3.202
X3.7776Y-3.302
X3.7776Y-3.402
X4.2733Y-4.204
X4.2733Y-4.304
X4.2733Y-4.404
X4.2733Y-4.504
X4.8733Y-4.104
X4.8733Y-4.204
X4.8733Y-4.304
X4.8733Y-4.404
X4.8733Y-4.504
X3.1776Y-5.306
X3.1776Y-5.406
X3.1776Y-5.506
X3.1776Y-5.606
X3.7776Y-5.206
X3.7776Y-5.306
X3.7776Y-5.406
X3.7776Y-5.506
X3.7776Y-5.606
X3.1776Y-4.204
X3.1776Y-4.304
X3.1776Y-4.404
X3.1776Y-4.504
X3.7776Y-4.104
X3.7776Y-4.204
X3.7776Y-4.304
X3.7776Y-4.404
X3.7776Y-4.504
X6.48Y-4.204
X6.48Y-4.304
X6.48Y-4.404
X6.48Y-4.504
X7.08Y-4.104
X7.08Y-4.204
X7.08Y-4.304
X7.08Y-4.404
X7.08Y-4.504
X4.2733Y-3.102
X4.2733Y-3.202
X4.2733Y-3.302
X4.2733Y-3.402
X4.8733Y-3.002
X4.8733Y-3.102
X4.8733Y-3.202
X4.8733Y-3.302
X4.8733Y-3.402
X5.3767Y-4.204
X5.3767Y-4.304
X5.3767Y-4.404
X5.3767Y-4.504
X5.9767Y-4.104
X5.9767Y-4.204
X5.9767Y-4.304
X5.9767Y-4.404
X5.9767Y-4.504
X6.48Y-5.306
X6.48Y-5.406
X6.48Y-5.506
X6.48Y-5.606
X7.08Y-5.206
X7.08Y-5.306
X7.08Y-5.406
X7.08Y-5.506
X7.08Y-5.606
X6.48Y-2.0
X6.48Y-2.1
X6.48Y-2.2
X6.48Y-2.3
X7.08Y-1.9
X7.08Y-2.0
X7.08Y-2.1
X7.08Y-2.2
X7.08Y-2.3
X5.3767Y-2.0
X5.3767Y-2.1
X5.3767Y-2.2
X5.3767Y-2.3
X5.9767Y-1.9
X5.9767Y-2.0
X5.9767Y-2.1
X5.9767Y-2.2
X5.9767Y-2.3
X4.2733Y-2.0
X4.2733Y-2.1
X4.2733Y-2.2
X4.2733Y-2.3
X4.8733Y-1.9
X4.8733Y-2.0
X4.8733Y-2.1
X4.8733Y-2.2
X4.8733Y-2.3
X4.2733Y-5.306
X4.2733Y-5.406
X4.2733Y-5.506
X4.2733Y-5.606
X4.8733Y-5.206
X4.8733Y-5.306
X4.8733Y-5.406
X4.8733Y-5.506
X4.8733Y-5.606
X5.3767Y-3.102
X5.3767Y-3.202
X5.3767Y-3.302
X5.3767Y-3.402
X5.9767Y-3.002
X5.9767Y-3.102
X5.9767Y-3.202
X5.9767Y-3.302
X5.9767Y-3.402
X6.48Y-3.102
X6.48Y-3.202
X6.48Y-3.302
X6.48Y-3.402
X7.08Y-3.002
X7.08Y-3.102
X7.08Y-3.202
X7.08Y-3.302
X7.08Y-3.402
X5.3767Y-5.306
X5.3767Y-5.406
X5.3767Y-5.506
X5.3767Y-5.606
X5.9767Y-5.206
X5.9767Y-5.306
X5.9767Y-5.406
X5.9767Y-5.506
X5.9767Y-5.606
T2
G00X3.3099Y-6.0811
M15
G01X3.3099Y-6.1244
M16
G05
G00X3.3099Y-6.2555
M15
G01X3.3099Y-6.2791
M16
G05
G00X3.6501Y-6.0811
M15
G01X3.6501Y-6.1244
M16
G05
G00X3.6501Y-6.2555
M15
G01X3.6501Y-6.2791
M16
G05
T0
M30
